<svg version="1.2" xmlns="http://www.w3.org/2000/svg" viewBox="0 0 308 114" width="308" height="114">
	<title>워드마크_기본형-ai</title>
	<defs>
		<radialGradient id="g1" cx="0" cy="0" r="1" gradientUnits="userSpaceOnUse" gradientTransform="matrix(35.466,0,0,35.466,81.755,52.046)">
			<stop offset="0" stop-color="#8dc63f"/>
			<stop offset="1" stop-color="#3c9841"/>
		</radialGradient>
		<radialGradient id="g2" cx="0" cy="0" r="1" gradientUnits="userSpaceOnUse" gradientTransform="matrix(68.251,0,0,68.251,76.626,71.182)">
			<stop offset="0" stop-color="#22b1e6"/>
			<stop offset="1" stop-color="#1975bb"/>
		</radialGradient>
		<radialGradient id="g3" cx="0" cy="0" r="1" gradientUnits="userSpaceOnUse" gradientTransform="matrix(35.466,0,0,35.466,81.755,52.046)">
			<stop offset="0" stop-color="#8dc63f"/>
			<stop offset="1" stop-color="#3c9841"/>
		</radialGradient>
		<radialGradient id="g4" cx="0" cy="0" r="1" gradientUnits="userSpaceOnUse" gradientTransform="matrix(68.251,0,0,68.251,76.626,71.182)">
			<stop offset="0" stop-color="#22b1e6"/>
			<stop offset="1" stop-color="#1975bb"/>
		</radialGradient>
	</defs>
	<style>
		.s0 { fill: url(#g1) } 
		.s1 { display: none;fill: url(#g2) } 
		.s2 { fill: #1975bb } 
		.s3 { fill: url(#g3) } 
		.s4 { fill: url(#g4) } 
	</style>
	<g id="_Artboards_" style="display: none">
	</g>
	<g id="Layer 1">
		<g id="&lt;Group&gt;">
			<path id="&lt;Path&gt;" class="s0" d="m67.1 14.2c11-1.3 16.2 1.4 17.7 4.4 1.3 2.5 1.2 6.1-3.1 9.5 0 0-5.3 4-4.5 9.5 0.9 5.6 9.4 11.4 18.8 6.8 9.3-4.6 10.6-16.6 6.9-23.2-3.7-6.6-11.6-10.1-22.2-10.4-4.1-0.1-10.3 0.5-13.5 1.6 0 0-1.1 0.3-1.2 0.9-0.1 0.7 0.4 1 1.1 0.9z"/>
			<path id="&lt;Path&gt;" class="s1" d="m79.6 50.4c-1.3-1.4-5.6 0.5-4.9-5.7 0.5-5.3-5.1-6-7.6-6.1q-0.6 0-1.2 0c-1.2 0-3 0-3 0-10-0.4-18-4.3-19.8-10.8-1.9-6.5 1.6-13.4 14-17.5 0 0 1.3-0.5 0.6-1.4-0.3-0.6-1.5-0.4-1.5-0.4-29.6 4.8-46.3 21.9-42.1 40.7 1.9 8.7 11.9 16.3 22.9 18.6 1 0.2 14.4 3.9 28-0.2 6.4-2 11.2-5 13.8-9 2.2-3.6 2.1-6.9 0.8-8.2z"/>
			<g id="&lt;Group&gt;">
				<path id="&lt;Path&gt;" class="s2" d="m175.7 87.4c0 10.1 11.7 18.4 26.2 18.4 14.4 0 26.1-8.3 26.1-18.4v-40.8c0-1.3-1.1-2.4-2.5-2.4h-10.2v42.8c0 5.5-6.1 10-13.4 10-7.3 0-13.5-4.5-13.5-10v-40.4c0-1.3-1.1-2.4-2.5-2.4h-15.9v6.4h2.6c0.6 0.1 3.1 0.3 3.1 3.3z"/>
				<path id="&lt;Path&gt;" class="s2" d="m159.5 44.2h-10.2v25.3h-26.9v-22.9c0-1.3-1.1-2.4-2.5-2.4h-15.9v6.4h2.5c0.6 0.1 3.2 0.3 3.2 3.3v45.3c0 3.1 2.5 5.6 5.6 5.6h7.1v-25.9h26.9v20.3c0 3.1 2.5 5.6 5.6 5.6h7.1v-58.2c0-1.3-1.1-2.4-2.5-2.4z"/>
				<path id="&lt;Path&gt;" class="s2" d="m290.7 100.4v-27.8c0-1.3-1.1-2.4-2.4-2.4h-22.2v8.6h8.8c0.8 0 4 0.4 4 4.2v11.6c-2.7 1.6-7.4 1.8-9 1.9-5 0-8.7-2-8.7-2-6.2-3.3-10.1-8.1-11.2-17.7-1.2-10 1.6-17.6 7.3-22.2 2.7-2.1 6.3-3.2 10.9-3.3 1 0 2.1 0.1 3.1 0.2 5.2 0.7 10.8 2.9 10.9 10.8v1.9l0.6 0.1c2.4 0.3 4.6-0.5 6.3-2.4 1.7-1.9 2.6-4.7 2.3-7.4-0.3-3.3-2.5-6.1-6.1-8.1-3.4-1.8-8.8-2.8-14.9-2.8-3.8 0-7.5 0.4-10.5 1.2-4.8 1.2-8.8 3.3-12.6 6.6-7.6 6.4-10.8 14.4-10.4 25.9 0.2 5.4 1.8 14.4 10.1 20.9 5.4 4.3 13.2 6.7 22.3 6.8 8.7 0.1 17.6-2.4 21.4-4.6z"/>
			</g>
			<path id="&lt;Path&gt;" class="s3" d="m67.1 14.2c11-1.3 16.2 1.4 17.7 4.4 1.3 2.5 1.2 6.1-3.1 9.5 0 0-5.3 4-4.5 9.5 0.9 5.6 9.4 11.4 18.8 6.8 9.3-4.6 10.6-16.6 6.9-23.2-3.7-6.6-11.6-10.1-22.2-10.4-4.1-0.1-10.3 0.5-13.5 1.6 0 0-1.1 0.3-1.2 0.9-0.1 0.7 0.4 1 1.1 0.9z"/>
			<path id="&lt;Path&gt;" class="s4" d="m79.6 50.4c-1.3-1.4-5.6 0.5-4.9-5.7 0.5-5.3-5.1-6-7.6-6.1q-0.6 0-1.2 0c-1.2 0-3 0-3 0-10-0.4-18-4.3-19.8-10.8-1.9-6.5 1.6-13.4 14-17.5 0 0 1.3-0.5 0.6-1.4-0.3-0.6-1.5-0.4-1.5-0.4-29.6 4.8-46.3 21.9-42.1 40.7 1.9 8.7 11.9 16.3 22.9 18.6 1 0.2 14.4 3.9 28-0.2 6.4-2 11.2-5 13.8-9 2.2-3.6 2.1-6.9 0.8-8.2z"/>
			<g id="&lt;Group&gt;" style="display: none">
				<path id="&lt;Path&gt;" class="s2" d="m175.7 87.4c0 10.1 11.7 18.4 26.2 18.4 14.4 0 26.1-8.3 26.1-18.4v-40.8c0-1.3-1.1-2.4-2.5-2.4h-10.2v42.8c0 5.5-6.1 10-13.4 10-7.3 0-13.5-4.5-13.5-10v-40.4c0-1.3-1.1-2.4-2.5-2.4h-15.9v6.4h2.6c0.6 0.1 3.1 0.3 3.1 3.3z"/>
				<path id="&lt;Path&gt;" class="s2" d="m159.5 44.2h-10.2v25.3h-26.9v-22.9c0-1.3-1.1-2.4-2.5-2.4h-15.9v6.4h2.5c0.6 0.1 3.2 0.3 3.2 3.3v45.3c0 3.1 2.5 5.6 5.6 5.6h7.1v-25.9h26.9v20.3c0 3.1 2.5 5.6 5.6 5.6h7.1v-58.2c0-1.3-1.1-2.4-2.5-2.4z"/>
				<path id="&lt;Path&gt;" class="s2" d="m290.7 100.4v-27.8c0-1.3-1.1-2.4-2.4-2.4h-22.2v8.6h8.8c0.8 0 4 0.4 4 4.2v11.6c-2.7 1.6-7.4 1.8-9 1.9-5 0-8.7-2-8.7-2-6.2-3.3-10.1-8.1-11.2-17.7-1.2-10 1.6-17.6 7.3-22.2 2.7-2.1 6.3-3.2 10.9-3.3 1 0 2.1 0.1 3.1 0.2 5.2 0.7 10.8 2.9 10.9 10.8v1.9l0.6 0.1c2.4 0.3 4.6-0.5 6.3-2.4 1.7-1.9 2.6-4.7 2.3-7.4-0.3-3.3-2.5-6.1-6.1-8.1-3.4-1.8-8.8-2.8-14.9-2.8-3.8 0-7.5 0.4-10.5 1.2-4.8 1.2-8.8 3.3-12.6 6.6-7.6 6.4-10.8 14.4-10.4 25.9 0.2 5.4 1.8 14.4 10.1 20.9 5.4 4.3 13.2 6.7 22.3 6.8 8.7 0.1 17.6-2.4 21.4-4.6z"/>
			</g>
		</g>
	</g>
</svg>