<svg xmlns="http://www.w3.org/2000/svg" xmlns:xlink="http://www.w3.org/1999/xlink" version="1.1" x="0px" y="0px" viewBox="0 0 100 125" style="enable-background:new 0 0 100 100;" xml:space="preserve"><g><path d="M50,40.9c-0.3,0-0.5,0.2-0.5,0.5v5.8c0,0.3,0.2,0.5,0.5,0.5s0.5-0.2,0.5-0.5v-5.8C50.5,41.1,50.3,40.9,50,40.9z"/><path d="M48,45.6c-0.1-0.2-0.4-0.3-0.7-0.2c-0.2,0.1-0.3,0.4-0.2,0.7l1,1.7c0.1,0.2,0.3,0.2,0.4,0.2c0.1,0,0.2,0,0.2-0.1   c0.2-0.1,0.3-0.4,0.2-0.7L48,45.6z"/><path d="M46.5,43c-0.1-0.2-0.4-0.3-0.7-0.2c-0.2,0.1-0.3,0.4-0.2,0.7l0.5,0.9c0.1,0.2,0.3,0.2,0.4,0.2c0.1,0,0.2,0,0.2-0.1   c0.2-0.1,0.3-0.4,0.2-0.7L46.5,43z"/><path d="M47.8,48.2l-5-2.9c-0.2-0.1-0.5-0.1-0.7,0.2C42,45.7,42,46,42.3,46.1l5,2.9c0.1,0,0.2,0.1,0.2,0.1c0.2,0,0.3-0.1,0.4-0.2   C48.1,48.6,48.1,48.3,47.8,48.2z"/><path d="M47.2,50.5c0.3,0,0.5-0.2,0.5-0.5s-0.2-0.5-0.5-0.5h-2c-0.3,0-0.5,0.2-0.5,0.5s0.2,0.5,0.5,0.5H47.2z"/><path d="M42.2,50.5h1c0.3,0,0.5-0.2,0.5-0.5s-0.2-0.5-0.5-0.5h-1c-0.3,0-0.5,0.2-0.5,0.5S41.9,50.5,42.2,50.5z"/><path d="M48,51.1c-0.1-0.2-0.4-0.3-0.7-0.2l-5,2.9C42,54,42,54.3,42.1,54.6c0.1,0.2,0.3,0.2,0.4,0.2c0.1,0,0.2,0,0.2-0.1l5-2.9   C48,51.7,48.1,51.4,48,51.1z"/><path d="M46.1,57.3c0.2,0,0.3-0.1,0.4-0.2l0.5-0.9c0.1-0.2,0.1-0.5-0.2-0.7c-0.2-0.1-0.5-0.1-0.7,0.2l-0.5,0.9   c-0.1,0.2-0.1,0.5,0.2,0.7C45.9,57.2,46,57.3,46.1,57.3z"/><path d="M48.8,52c-0.2-0.1-0.5-0.1-0.7,0.2l-1,1.7c-0.1,0.2-0.1,0.5,0.2,0.7c0.1,0,0.2,0.1,0.2,0.1c0.2,0,0.3-0.1,0.4-0.2l1-1.7   C49.2,52.4,49.1,52.1,48.8,52z"/><path d="M50,59.1c0.3,0,0.5-0.2,0.5-0.5v-5.8c0-0.3-0.2-0.5-0.5-0.5s-0.5,0.2-0.5,0.5v5.8C49.5,58.9,49.7,59.1,50,59.1z"/><path d="M54.3,56.5l-0.5-0.9c-0.1-0.2-0.4-0.3-0.7-0.2c-0.2,0.1-0.3,0.4-0.2,0.7l0.5,0.9c0.1,0.2,0.3,0.2,0.4,0.2   c0.1,0,0.2,0,0.2-0.1C54.4,57.1,54.5,56.8,54.3,56.5z"/><path d="M52.8,53.9l-1-1.7c-0.1-0.2-0.4-0.3-0.7-0.2c-0.2,0.1-0.3,0.4-0.2,0.7l1,1.7c0.1,0.2,0.3,0.2,0.4,0.2c0.1,0,0.2,0,0.2-0.1   C52.9,54.5,53,54.2,52.8,53.9z"/><path d="M57.7,53.9l-5-2.9c-0.2-0.1-0.5-0.1-0.7,0.2c-0.1,0.2-0.1,0.5,0.2,0.7l5,2.9c0.1,0,0.2,0.1,0.2,0.1c0.2,0,0.3-0.1,0.4-0.2   C58,54.3,58,54,57.7,53.9z"/><path d="M52.8,49.5c-0.3,0-0.5,0.2-0.5,0.5s0.2,0.5,0.5,0.5h2c0.3,0,0.5-0.2,0.5-0.5s-0.2-0.5-0.5-0.5H52.8z"/><path d="M57.8,49.5h-1c-0.3,0-0.5,0.2-0.5,0.5s0.2,0.5,0.5,0.5h1c0.3,0,0.5-0.2,0.5-0.5S58.1,49.5,57.8,49.5z"/><path d="M52,48.9c0.1,0.2,0.3,0.2,0.4,0.2c0.1,0,0.2,0,0.2-0.1l5-2.9c0.2-0.1,0.3-0.4,0.2-0.7c-0.1-0.2-0.4-0.3-0.7-0.2l-5,2.9   C52,48.3,51.9,48.6,52,48.9z"/><path d="M51.2,48c0.1,0,0.2,0.1,0.2,0.1c0.2,0,0.3-0.1,0.4-0.2l1-1.7c0.1-0.2,0.1-0.5-0.2-0.7c-0.2-0.1-0.5-0.1-0.7,0.2l-1,1.7   C50.8,47.6,50.9,47.9,51.2,48z"/><path d="M53.5,43L53,43.9c-0.1,0.2-0.1,0.5,0.2,0.7c0.1,0,0.2,0.1,0.2,0.1c0.2,0,0.3-0.1,0.4-0.2l0.5-0.9c0.1-0.2,0.1-0.5-0.2-0.7   C53.9,42.7,53.6,42.8,53.5,43z"/><path d="M50,34c0.3,0,0.5-0.2,0.5-0.5v-1c0-0.3-0.2-0.5-0.5-0.5s-0.5,0.2-0.5,0.5v1C49.5,33.8,49.7,34,50,34z"/><path d="M50,31c0.3,0,0.5-0.2,0.5-0.5V30c0-0.3-0.2-0.5-0.5-0.5s-0.5,0.2-0.5,0.5v0.5C49.5,30.8,49.7,31,50,31z"/><path d="M50,38c0.3,0,0.5-0.2,0.5-0.5v-2c0-0.3-0.2-0.5-0.5-0.5s-0.5,0.2-0.5,0.5v2C49.5,37.8,49.7,38,50,38z"/><path d="M45,33.2l0.3,1c0.1,0.2,0.3,0.4,0.5,0.4c0,0,0.1,0,0.1,0c0.3-0.1,0.4-0.3,0.4-0.6l-0.3-1c-0.1-0.3-0.3-0.4-0.6-0.4   C45.1,32.7,44.9,33,45,33.2z"/><path d="M46.1,35.5c-0.3,0.1-0.4,0.3-0.4,0.6l0.5,1.9c0.1,0.2,0.3,0.4,0.5,0.4c0,0,0.1,0,0.1,0c0.3-0.1,0.4-0.3,0.4-0.6l-0.5-1.9   C46.6,35.6,46.4,35.4,46.1,35.5z"/><path d="M45.3,30.6c-0.1-0.3-0.3-0.4-0.6-0.4c-0.3,0.1-0.4,0.3-0.4,0.6l0.1,0.5c0.1,0.2,0.3,0.4,0.5,0.4c0,0,0.1,0,0.1,0   c0.3-0.1,0.4-0.3,0.4-0.6L45.3,30.6z"/><path d="M42.2,35.5l-0.5-0.9c-0.1-0.2-0.4-0.3-0.7-0.2c-0.2,0.1-0.3,0.4-0.2,0.7l0.5,0.9c0.1,0.2,0.3,0.2,0.4,0.2   c0.1,0,0.2,0,0.2-0.1C42.2,36,42.3,35.7,42.2,35.5z"/><path d="M40.4,32.4c-0.1-0.2-0.4-0.3-0.7-0.2c-0.2,0.1-0.3,0.4-0.2,0.7l0.2,0.4c0.1,0.2,0.3,0.2,0.4,0.2c0.1,0,0.2,0,0.2-0.1   c0.2-0.1,0.3-0.4,0.2-0.7L40.4,32.4z"/><path d="M42.5,37c-0.2,0.1-0.3,0.4-0.2,0.7l1,1.7c0.1,0.2,0.3,0.2,0.4,0.2c0.1,0,0.2,0,0.2-0.1c0.2-0.1,0.3-0.4,0.2-0.7l-1-1.7   C43,37,42.7,36.9,42.5,37z"/><path d="M38,38.7c0.1,0.1,0.2,0.1,0.4,0.1s0.3,0,0.4-0.1c0.2-0.2,0.2-0.5,0-0.7L38,37.3c-0.2-0.2-0.5-0.2-0.7,0s-0.2,0.5,0,0.7   L38,38.7z"/><path d="M36.2,35.5c-0.2-0.2-0.5-0.2-0.7,0s-0.2,0.5,0,0.7l0.4,0.4c0.1,0.1,0.2,0.1,0.4,0.1s0.3,0,0.4-0.1c0.2-0.2,0.2-0.5,0-0.7   L36.2,35.5z"/><path d="M39.4,39.4c-0.2,0.2-0.2,0.5,0,0.7l1.4,1.4c0.1,0.1,0.2,0.1,0.4,0.1s0.3,0,0.4-0.1c0.2-0.2,0.2-0.5,0-0.7l-1.4-1.4   C39.9,39.2,39.6,39.2,39.4,39.4z"/><path d="M37.2,43.2l1.7,1c0.1,0,0.2,0.1,0.2,0.1c0.2,0,0.3-0.1,0.4-0.2c0.1-0.2,0.1-0.5-0.2-0.7l-1.7-1c-0.2-0.1-0.5-0.1-0.7,0.2   C36.9,42.7,36.9,43.1,37.2,43.2z"/><path d="M34.4,41c-0.1,0.2-0.1,0.5,0.2,0.7l0.9,0.5c0.1,0,0.2,0.1,0.2,0.1c0.2,0,0.3-0.1,0.4-0.2c0.1-0.2,0.1-0.5-0.2-0.7l-0.9-0.5   C34.8,40.7,34.5,40.8,34.4,41z"/><path d="M32.9,39.6c-0.2-0.1-0.5-0.1-0.7,0.2s-0.1,0.5,0.2,0.7l0.4,0.2c0.1,0,0.2,0.1,0.2,0.1c0.2,0,0.3-0.1,0.4-0.2   c0.1-0.2,0.1-0.5-0.2-0.7L32.9,39.6z"/><path d="M35.5,46.1c-0.1,0.3,0.1,0.5,0.4,0.6l1.9,0.5c0,0,0.1,0,0.1,0c0.2,0,0.4-0.1,0.5-0.4c0.1-0.3-0.1-0.5-0.4-0.6l-1.9-0.5   C35.9,45.7,35.6,45.9,35.5,46.1z"/><path d="M33.2,45c-0.3-0.1-0.5,0.1-0.6,0.4c-0.1,0.3,0.1,0.5,0.4,0.6l1,0.3c0,0,0.1,0,0.1,0c0.2,0,0.4-0.1,0.5-0.4   c0.1-0.3-0.1-0.5-0.4-0.6L33.2,45z"/><path d="M31.2,45.5c0.2,0,0.4-0.1,0.5-0.4c0.1-0.3-0.1-0.5-0.4-0.6l-0.5-0.1c-0.3-0.1-0.5,0.1-0.6,0.4c-0.1,0.3,0.1,0.5,0.4,0.6   l0.5,0.1C31.1,45.5,31.1,45.5,31.2,45.5z"/><path d="M30,49.5c-0.3,0-0.5,0.2-0.5,0.5s0.2,0.5,0.5,0.5h0.5c0.3,0,0.5-0.2,0.5-0.5s-0.2-0.5-0.5-0.5H30z"/><path d="M32,50c0,0.3,0.2,0.5,0.5,0.5h1c0.3,0,0.5-0.2,0.5-0.5s-0.2-0.5-0.5-0.5h-1C32.2,49.5,32,49.7,32,50z"/><path d="M37.5,49.5h-2c-0.3,0-0.5,0.2-0.5,0.5s0.2,0.5,0.5,0.5h2c0.3,0,0.5-0.2,0.5-0.5S37.8,49.5,37.5,49.5z"/><path d="M33,54.1c-0.3,0.1-0.4,0.3-0.4,0.6c0.1,0.2,0.3,0.4,0.5,0.4c0,0,0.1,0,0.1,0l1-0.3c0.3-0.1,0.4-0.3,0.4-0.6   c-0.1-0.3-0.3-0.4-0.6-0.4L33,54.1z"/><path d="M31.7,54.9c-0.1-0.3-0.3-0.4-0.6-0.4l-0.5,0.1c-0.3,0.1-0.4,0.3-0.4,0.6c0.1,0.2,0.3,0.4,0.5,0.4c0,0,0.1,0,0.1,0l0.5-0.1   C31.6,55.5,31.7,55.2,31.7,54.9z"/><path d="M38.4,53.1c-0.1-0.3-0.3-0.4-0.6-0.4l-1.9,0.5c-0.3,0.1-0.4,0.3-0.4,0.6c0.1,0.2,0.3,0.4,0.5,0.4c0,0,0.1,0,0.1,0l1.9-0.5   C38.3,53.7,38.5,53.4,38.4,53.1z"/><path d="M34.9,59.3c0.1,0,0.2,0,0.2-0.1l0.9-0.5c0.2-0.1,0.3-0.4,0.2-0.7c-0.1-0.2-0.4-0.3-0.7-0.2l-0.9,0.5   c-0.2,0.1-0.3,0.4-0.2,0.7C34.5,59.2,34.7,59.3,34.9,59.3z"/><path d="M32.7,60.5c0.1,0,0.2,0,0.2-0.1l0.4-0.2c0.2-0.1,0.3-0.4,0.2-0.7c-0.1-0.2-0.4-0.3-0.7-0.2l-0.4,0.2   c-0.2,0.1-0.3,0.4-0.2,0.7C32.3,60.4,32.5,60.5,32.7,60.5z"/><path d="M39.6,56c-0.1-0.2-0.4-0.3-0.7-0.2l-1.7,1C37,57,36.9,57.3,37,57.5c0.1,0.2,0.3,0.2,0.4,0.2c0.1,0,0.2,0,0.2-0.1l1.7-1   C39.7,56.6,39.8,56.2,39.6,56z"/><path d="M35.9,64.6c0.1,0,0.3,0,0.4-0.1l0.4-0.4c0.2-0.2,0.2-0.5,0-0.7s-0.5-0.2-0.7,0l-0.4,0.4c-0.2,0.2-0.2,0.5,0,0.7   C35.6,64.6,35.7,64.6,35.9,64.6z"/><path d="M38,61.3L37.3,62c-0.2,0.2-0.2,0.5,0,0.7c0.1,0.1,0.2,0.1,0.4,0.1s0.3,0,0.4-0.1l0.7-0.7c0.2-0.2,0.2-0.5,0-0.7   S38.2,61.1,38,61.3z"/><path d="M41.5,58.5c-0.2-0.2-0.5-0.2-0.7,0l-1.4,1.4c-0.2,0.2-0.2,0.5,0,0.7c0.1,0.1,0.2,0.1,0.4,0.1s0.3,0,0.4-0.1l1.4-1.4   C41.7,59,41.7,58.7,41.5,58.5z"/><path d="M39.8,67.8c0.1,0,0.2,0.1,0.2,0.1c0.2,0,0.3-0.1,0.4-0.2l0.2-0.4c0.1-0.2,0.1-0.5-0.2-0.7s-0.5-0.1-0.7,0.2l-0.2,0.4   C39.4,67.3,39.5,67.6,39.8,67.8z"/><path d="M44,60.4c-0.2-0.1-0.5-0.1-0.7,0.2l-1,1.7c-0.1,0.2-0.1,0.5,0.2,0.7c0.1,0,0.2,0.1,0.2,0.1c0.2,0,0.3-0.1,0.4-0.2l1-1.7   C44.3,60.8,44.2,60.5,44,60.4z"/><path d="M41,65.6c0.1,0,0.2,0.1,0.2,0.1c0.2,0,0.3-0.1,0.4-0.2l0.5-0.9c0.1-0.2,0.1-0.5-0.2-0.7c-0.2-0.1-0.5-0.1-0.7,0.2l-0.5,0.9   C40.7,65.1,40.8,65.5,41,65.6z"/><path d="M46,67l0.3-1c0.1-0.3-0.1-0.5-0.4-0.6c-0.3-0.1-0.5,0.1-0.6,0.4l-0.3,1c-0.1,0.3,0.1,0.5,0.4,0.6c0,0,0.1,0,0.1,0   C45.7,67.4,45.9,67.3,46,67z"/><path d="M46.9,61.6c-0.3-0.1-0.5,0.1-0.6,0.4l-0.5,1.9c-0.1,0.3,0.1,0.5,0.4,0.6c0,0,0.1,0,0.1,0c0.2,0,0.4-0.1,0.5-0.4l0.5-1.9   C47.3,61.9,47.2,61.7,46.9,61.6z"/><path d="M45.1,68.4c-0.3-0.1-0.5,0.1-0.6,0.4l-0.1,0.5c-0.1,0.3,0.1,0.5,0.4,0.6c0,0,0.1,0,0.1,0c0.2,0,0.4-0.1,0.5-0.4l0.1-0.5   C45.5,68.7,45.4,68.4,45.1,68.4z"/><path d="M50,69c-0.3,0-0.5,0.2-0.5,0.5V70c0,0.3,0.2,0.5,0.5,0.5s0.5-0.2,0.5-0.5v-0.5C50.5,69.2,50.3,69,50,69z"/><path d="M50,62c-0.3,0-0.5,0.2-0.5,0.5v2c0,0.3,0.2,0.5,0.5,0.5s0.5-0.2,0.5-0.5v-2C50.5,62.2,50.3,62,50,62z"/><path d="M50,66c-0.3,0-0.5,0.2-0.5,0.5v1c0,0.3,0.2,0.5,0.5,0.5s0.5-0.2,0.5-0.5v-1C50.5,66.2,50.3,66,50,66z"/><path d="M53.8,64.5c0,0,0.1,0,0.1,0c0.3-0.1,0.4-0.3,0.4-0.6l-0.5-1.9c-0.1-0.3-0.3-0.4-0.6-0.4c-0.3,0.1-0.4,0.3-0.4,0.6l0.5,1.9   C53.3,64.4,53.5,64.5,53.8,64.5z"/><path d="M53.8,66.1l0.3,1c0.1,0.2,0.3,0.4,0.5,0.4c0,0,0.1,0,0.1,0c0.3-0.1,0.4-0.3,0.4-0.6l-0.3-1c-0.1-0.3-0.3-0.4-0.6-0.4   C53.9,65.5,53.7,65.8,53.8,66.1z"/><path d="M54.7,69.4c0.1,0.2,0.3,0.4,0.5,0.4c0,0,0.1,0,0.1,0c0.3-0.1,0.4-0.3,0.4-0.6l-0.1-0.5c-0.1-0.3-0.3-0.4-0.6-0.4   c-0.3,0.1-0.4,0.3-0.4,0.6L54.7,69.4z"/><path d="M56,60.4c-0.2,0.1-0.3,0.4-0.2,0.7l1,1.7c0.1,0.2,0.3,0.2,0.4,0.2c0.1,0,0.2,0,0.2-0.1c0.2-0.1,0.3-0.4,0.2-0.7l-1-1.7   C56.6,60.3,56.2,60.2,56,60.4z"/><path d="M58.3,65.4c0.1,0.2,0.3,0.2,0.4,0.2c0.1,0,0.2,0,0.2-0.1c0.2-0.1,0.3-0.4,0.2-0.7L58.7,64c-0.1-0.2-0.4-0.3-0.7-0.2   c-0.2,0.1-0.3,0.4-0.2,0.7L58.3,65.4z"/><path d="M59.6,67.6c0.1,0.2,0.3,0.2,0.4,0.2c0.1,0,0.2,0,0.2-0.1c0.2-0.1,0.3-0.4,0.2-0.7l-0.2-0.4c-0.1-0.2-0.4-0.3-0.7-0.2   c-0.2,0.1-0.3,0.4-0.2,0.7L59.6,67.6z"/><path d="M60.3,60.7c0.1,0,0.3,0,0.4-0.1c0.2-0.2,0.2-0.5,0-0.7l-1.4-1.4c-0.2-0.2-0.5-0.2-0.7,0s-0.2,0.5,0,0.7l1.4,1.4   C60,60.7,60.1,60.7,60.3,60.7z"/><path d="M63.8,64.5c0.1,0.1,0.2,0.1,0.4,0.1s0.3,0,0.4-0.1c0.2-0.2,0.2-0.5,0-0.7l-0.4-0.4c-0.2-0.2-0.5-0.2-0.7,0s-0.2,0.5,0,0.7   L63.8,64.5z"/><path d="M61.3,61.3c-0.2,0.2-0.2,0.5,0,0.7l0.7,0.7c0.1,0.1,0.2,0.1,0.4,0.1s0.3,0,0.4-0.1c0.2-0.2,0.2-0.5,0-0.7L62,61.3   C61.8,61.1,61.5,61.1,61.3,61.3z"/><path d="M62.8,56.8l-1.7-1c-0.2-0.1-0.5-0.1-0.7,0.2c-0.1,0.2-0.1,0.5,0.2,0.7l1.7,1c0.1,0,0.2,0.1,0.2,0.1c0.2,0,0.3-0.1,0.4-0.2   C63.1,57.3,63.1,56.9,62.8,56.8z"/><path d="M65.2,59.2c0.2,0,0.3-0.1,0.4-0.2c0.1-0.2,0.1-0.5-0.2-0.7l-0.9-0.5c-0.2-0.1-0.5-0.1-0.7,0.2s-0.1,0.5,0.2,0.7l0.9,0.5   C65,59.2,65.1,59.2,65.2,59.2z"/><path d="M66.6,60.2l0.4,0.2c0.1,0,0.2,0.1,0.2,0.1c0.2,0,0.3-0.1,0.4-0.2c0.1-0.2,0.1-0.5-0.2-0.7l-0.4-0.2   c-0.2-0.1-0.5-0.1-0.7,0.2C66.3,59.7,66.4,60,66.6,60.2z"/><path d="M66.8,55c0,0,0.1,0,0.1,0c0.2,0,0.4-0.1,0.5-0.4c0.1-0.3-0.1-0.5-0.4-0.6l-1-0.3c-0.3-0.1-0.5,0.1-0.6,0.4s0.1,0.5,0.4,0.6   L66.8,55z"/><path d="M68.7,55.5l0.5,0.1c0,0,0.1,0,0.1,0c0.2,0,0.4-0.1,0.5-0.4c0.1-0.3-0.1-0.5-0.4-0.6L69,54.6c-0.3-0.1-0.5,0.1-0.6,0.4   C68.3,55.2,68.4,55.4,68.7,55.5z"/><path d="M64,54.2c0.2,0,0.4-0.1,0.5-0.4c0.1-0.3-0.1-0.5-0.4-0.6l-1.9-0.5c-0.3-0.1-0.5,0.1-0.6,0.4c-0.1,0.3,0.1,0.5,0.4,0.6   l1.9,0.5C63.9,54.2,64,54.2,64,54.2z"/><path d="M62.5,49.5c-0.3,0-0.5,0.2-0.5,0.5s0.2,0.5,0.5,0.5h2c0.3,0,0.5-0.2,0.5-0.5s-0.2-0.5-0.5-0.5H62.5z"/><path d="M68,50c0-0.3-0.2-0.5-0.5-0.5h-1c-0.3,0-0.5,0.2-0.5,0.5s0.2,0.5,0.5,0.5h1C67.8,50.5,68,50.3,68,50z"/><path d="M70.5,50c0-0.3-0.2-0.5-0.5-0.5h-0.5c-0.3,0-0.5,0.2-0.5,0.5s0.2,0.5,0.5,0.5H70C70.3,50.5,70.5,50.3,70.5,50z"/><path d="M61.6,46.9c0.1,0.2,0.3,0.4,0.5,0.4c0,0,0.1,0,0.1,0l1.9-0.5c0.3-0.1,0.4-0.3,0.4-0.6c-0.1-0.3-0.3-0.4-0.6-0.4l-1.9,0.5   C61.7,46.3,61.5,46.6,61.6,46.9z"/><path d="M65.5,45.8c0.1,0.2,0.3,0.4,0.5,0.4c0,0,0.1,0,0.1,0l1-0.3c0.3-0.1,0.4-0.3,0.4-0.6c-0.1-0.3-0.3-0.4-0.6-0.4l-1,0.3   C65.5,45.3,65.4,45.6,65.5,45.8z"/><path d="M68.8,45.4c0,0,0.1,0,0.1,0l0.5-0.1c0.3-0.1,0.4-0.3,0.4-0.6c-0.1-0.3-0.3-0.4-0.6-0.4l-0.5,0.1c-0.3,0.1-0.4,0.3-0.4,0.6   C68.4,45.3,68.6,45.4,68.8,45.4z"/><path d="M67.1,40.7l0.4-0.2c0.2-0.1,0.3-0.4,0.2-0.7c-0.1-0.2-0.4-0.3-0.7-0.2l-0.4,0.2c-0.2,0.1-0.3,0.4-0.2,0.7   c0.1,0.2,0.3,0.2,0.4,0.2C67,40.7,67.1,40.7,67.1,40.7z"/><path d="M60.4,44c0.1,0.2,0.3,0.2,0.4,0.2c0.1,0,0.2,0,0.2-0.1l1.7-1c0.2-0.1,0.3-0.4,0.2-0.7c-0.1-0.2-0.4-0.3-0.7-0.2l-1.7,1   C60.3,43.4,60.2,43.8,60.4,44z"/><path d="M64.9,40.8L64,41.3c-0.2,0.1-0.3,0.4-0.2,0.7c0.1,0.2,0.3,0.2,0.4,0.2c0.1,0,0.2,0,0.2-0.1l0.9-0.5   c0.2-0.1,0.3-0.4,0.2-0.7C65.4,40.8,65.1,40.7,64.9,40.8z"/><path d="M62,38.7l0.7-0.7c0.2-0.2,0.2-0.5,0-0.7s-0.5-0.2-0.7,0L61.3,38c-0.2,0.2-0.2,0.5,0,0.7c0.1,0.1,0.2,0.1,0.4,0.1   S61.9,38.8,62,38.7z"/><path d="M58.5,41.5c0.1,0.1,0.2,0.1,0.4,0.1s0.3,0,0.4-0.1l1.4-1.4c0.2-0.2,0.2-0.5,0-0.7s-0.5-0.2-0.7,0l-1.4,1.4   C58.3,41,58.3,41.3,58.5,41.5z"/><path d="M63.8,35.5l-0.4,0.4c-0.2,0.2-0.2,0.5,0,0.7c0.1,0.1,0.2,0.1,0.4,0.1s0.3,0,0.4-0.1l0.4-0.4c0.2-0.2,0.2-0.5,0-0.7   S64,35.3,63.8,35.5z"/><path d="M59,34.4c-0.2-0.1-0.5-0.1-0.7,0.2l-0.5,0.9c-0.1,0.2-0.1,0.5,0.2,0.7c0.1,0,0.2,0.1,0.2,0.1c0.2,0,0.3-0.1,0.4-0.2   l0.5-0.9C59.3,34.9,59.2,34.5,59,34.4z"/><path d="M56.2,39.7c0.2,0,0.3-0.1,0.4-0.2l1-1.7c0.1-0.2,0.1-0.5-0.2-0.7c-0.2-0.1-0.5-0.1-0.7,0.2l-1,1.7   c-0.1,0.2-0.1,0.5,0.2,0.7C56.1,39.6,56.2,39.7,56.2,39.7z"/><path d="M59.6,32.4l-0.2,0.4c-0.1,0.2-0.1,0.5,0.2,0.7c0.1,0,0.2,0.1,0.2,0.1c0.2,0,0.3-0.1,0.4-0.2l0.2-0.4   c0.1-0.2,0.1-0.5-0.2-0.7C60,32.1,59.7,32.2,59.6,32.4z"/><path d="M54.9,31.6c0,0,0.1,0,0.1,0c0.2,0,0.4-0.1,0.5-0.4l0.1-0.5c0.1-0.3-0.1-0.5-0.4-0.6c-0.3-0.1-0.5,0.1-0.6,0.4L54.6,31   C54.5,31.3,54.6,31.6,54.9,31.6z"/><path d="M54,33l-0.3,1c-0.1,0.3,0.1,0.5,0.4,0.6c0,0,0.1,0,0.1,0c0.2,0,0.4-0.1,0.5-0.4l0.3-1c0.1-0.3-0.1-0.5-0.4-0.6   C54.4,32.5,54.1,32.7,54,33z"/><path d="M53.1,38.4c0,0,0.1,0,0.1,0c0.2,0,0.4-0.1,0.5-0.4l0.5-1.9c0.1-0.3-0.1-0.5-0.4-0.6c-0.3-0.1-0.5,0.1-0.6,0.4l-0.5,1.9   C52.7,38.1,52.8,38.3,53.1,38.4z"/><path d="M50,26.7c0.3,0,0.5-0.2,0.5-0.5v-5.8c0-0.3-0.2-0.5-0.5-0.5s-0.5,0.2-0.5,0.5v5.8C49.5,26.5,49.7,26.7,50,26.7z"/><path d="M50,13.9c0.3,0,0.5-0.2,0.5-0.5v-1c0-0.3-0.2-0.5-0.5-0.5s-0.5,0.2-0.5,0.5v1C49.5,13.6,49.7,13.9,50,13.9z"/><path d="M50,17.9c0.3,0,0.5-0.2,0.5-0.5v-2c0-0.3-0.2-0.5-0.5-0.5s-0.5,0.2-0.5,0.5v2C49.5,17.6,49.7,17.9,50,17.9z"/><path d="M50,10.9c0.3,0,0.5-0.2,0.5-0.5v-2c0-0.3-0.2-0.5-0.5-0.5s-0.5,0.2-0.5,0.5v2C49.5,10.6,49.7,10.9,50,10.9z"/><path d="M44.6,12.7l0.1,1c0,0.3,0.2,0.4,0.5,0.4c0,0,0,0,0.1,0c0.3,0,0.5-0.3,0.4-0.6l-0.1-1c0-0.3-0.3-0.5-0.6-0.4   C44.7,12.2,44.5,12.5,44.6,12.7z"/><path d="M44.8,11.2C44.8,11.2,44.9,11.2,44.8,11.2c0.3,0,0.5-0.3,0.5-0.6l-0.3-2c0-0.3-0.3-0.5-0.6-0.4c-0.3,0-0.5,0.3-0.4,0.6   l0.3,2C44.4,11,44.6,11.2,44.8,11.2z"/><path d="M45,15.7l0.3,2c0,0.3,0.2,0.4,0.5,0.4c0,0,0,0,0.1,0c0.3,0,0.5-0.3,0.4-0.6l-0.3-2c0-0.3-0.3-0.5-0.6-0.4   C45.1,15.2,44.9,15.4,45,15.7z"/><path d="M39.8,13.8l0.3,1c0.1,0.2,0.3,0.4,0.5,0.4c0,0,0.1,0,0.1,0c0.3-0.1,0.4-0.3,0.4-0.6l-0.3-1c-0.1-0.3-0.3-0.4-0.6-0.4   C39.9,13.2,39.7,13.5,39.8,13.8z"/><path d="M40.5,16.7l0.5,1.9c0.1,0.2,0.3,0.4,0.5,0.4c0,0,0.1,0,0.1,0c0.3-0.1,0.4-0.3,0.4-0.6l-0.5-1.9c-0.1-0.3-0.3-0.4-0.6-0.4   C40.6,16.1,40.5,16.4,40.5,16.7z"/><path d="M39.2,11.8c0.1,0.2,0.3,0.4,0.5,0.4c0,0,0.1,0,0.1,0c0.3-0.1,0.4-0.3,0.4-0.6l-0.5-1.9c-0.1-0.3-0.3-0.4-0.6-0.4   c-0.3,0.1-0.4,0.3-0.4,0.6L39.2,11.8z"/><path d="M36.3,18.2L37,20c0.1,0.2,0.3,0.3,0.5,0.3c0.1,0,0.1,0,0.2,0c0.3-0.1,0.4-0.4,0.3-0.7l-0.8-1.8c-0.1-0.3-0.4-0.4-0.7-0.3   C36.3,17.6,36.2,17.9,36.3,18.2z"/><path d="M34.4,13.6c0.1,0.2,0.3,0.3,0.5,0.3c0.1,0,0.1,0,0.2,0c0.3-0.1,0.4-0.4,0.3-0.7l-0.8-1.8c-0.1-0.3-0.4-0.4-0.7-0.3   c-0.3,0.1-0.4,0.4-0.3,0.7L34.4,13.6z"/><path d="M35.1,15.4l0.4,0.9c0.1,0.2,0.3,0.3,0.5,0.3c0.1,0,0.1,0,0.2,0c0.3-0.1,0.4-0.4,0.3-0.7L36,15c-0.1-0.3-0.4-0.4-0.7-0.3   C35.1,14.9,35,15.2,35.1,15.4z"/><path d="M31.2,18.5c0.1,0.2,0.3,0.2,0.4,0.2c0.1,0,0.2,0,0.2-0.1c0.2-0.1,0.3-0.4,0.2-0.7l-0.5-0.9c-0.1-0.2-0.4-0.3-0.7-0.2   c-0.2,0.1-0.3,0.4-0.2,0.7L31.2,18.5z"/><path d="M29.7,15.9c0.1,0.2,0.3,0.2,0.4,0.2c0.1,0,0.2,0,0.2-0.1c0.2-0.1,0.3-0.4,0.2-0.7l-1-1.7c-0.1-0.2-0.4-0.3-0.7-0.2   c-0.2,0.1-0.3,0.4-0.2,0.7L29.7,15.9z"/><path d="M33.2,22c0.1,0.2,0.3,0.2,0.4,0.2c0.1,0,0.2,0,0.2-0.1c0.2-0.1,0.3-0.4,0.2-0.7l-1-1.7c-0.1-0.2-0.4-0.3-0.7-0.2   c-0.2,0.1-0.3,0.4-0.2,0.7L33.2,22z"/><path d="M25.5,18.9c0.1,0.1,0.2,0.2,0.4,0.2c0.1,0,0.2,0,0.3-0.1c0.2-0.2,0.3-0.5,0.1-0.7L25,16.7c-0.2-0.2-0.5-0.3-0.7-0.1   c-0.2,0.2-0.3,0.5-0.1,0.7L25.5,18.9z"/><path d="M27.3,21.2c0.1,0.1,0.2,0.2,0.4,0.2c0.1,0,0.2,0,0.3-0.1c0.2-0.2,0.3-0.5,0.1-0.7l-0.6-0.8c-0.2-0.2-0.5-0.3-0.7-0.1   c-0.2,0.2-0.3,0.5-0.1,0.7L27.3,21.2z"/><path d="M29.7,24.4c0.1,0.1,0.2,0.2,0.4,0.2c0.1,0,0.2,0,0.3-0.1c0.2-0.2,0.3-0.5,0.1-0.7l-1.2-1.6c-0.2-0.2-0.5-0.3-0.7-0.1   c-0.2,0.2-0.3,0.5-0.1,0.7L29.7,24.4z"/><path d="M23.7,24.4c0.1,0.1,0.2,0.1,0.4,0.1s0.3,0,0.4-0.1c0.2-0.2,0.2-0.5,0-0.7L23.7,23c-0.2-0.2-0.5-0.2-0.7,0s-0.2,0.5,0,0.7   L23.7,24.4z"/><path d="M21.6,22.3c0.1,0.1,0.2,0.1,0.4,0.1s0.3,0,0.4-0.1c0.2-0.2,0.2-0.5,0-0.7l-1.4-1.4c-0.2-0.2-0.5-0.2-0.7,0s-0.2,0.5,0,0.7   L21.6,22.3z"/><path d="M25.8,25.2c-0.2-0.2-0.5-0.2-0.7,0s-0.2,0.5,0,0.7l1.4,1.4c0.1,0.1,0.2,0.1,0.4,0.1s0.3,0,0.4-0.1c0.2-0.2,0.2-0.5,0-0.7   L25.8,25.2z"/><path d="M20.6,28.1c0.1,0.1,0.2,0.1,0.3,0.1c0.2,0,0.3-0.1,0.4-0.2c0.2-0.2,0.1-0.5-0.1-0.7l-0.8-0.6c-0.2-0.2-0.5-0.1-0.7,0.1   s-0.1,0.5,0.1,0.7L20.6,28.1z"/><path d="M18.2,26.3c0.1,0.1,0.2,0.1,0.3,0.1c0.2,0,0.3-0.1,0.4-0.2c0.2-0.2,0.1-0.5-0.1-0.7l-1.6-1.2c-0.2-0.2-0.5-0.1-0.7,0.1   c-0.2,0.2-0.1,0.5,0.1,0.7L18.2,26.3z"/><path d="M22.1,28.6c-0.2,0.2-0.1,0.5,0.1,0.7l1.6,1.2c0.1,0.1,0.2,0.1,0.3,0.1c0.2,0,0.3-0.1,0.4-0.2c0.2-0.2,0.1-0.5-0.1-0.7   l-1.6-1.2C22.6,28.4,22.3,28.4,22.1,28.6z"/><path d="M13.7,29.6l1.7,1c0.1,0,0.2,0.1,0.2,0.1c0.2,0,0.3-0.1,0.4-0.2c0.1-0.2,0.1-0.5-0.2-0.7l-1.7-1c-0.2-0.1-0.5-0.1-0.7,0.2   C13.4,29.2,13.4,29.5,13.7,29.6z"/><path d="M19.7,33.1l1.7,1c0.1,0,0.2,0.1,0.2,0.1c0.2,0,0.3-0.1,0.4-0.2c0.1-0.2,0.1-0.5-0.2-0.7l-1.7-1c-0.2-0.1-0.5-0.1-0.7,0.2   S19.5,33,19.7,33.1z"/><path d="M18.5,31.3l-0.9-0.5c-0.2-0.1-0.5-0.1-0.7,0.2c-0.1,0.2-0.1,0.5,0.2,0.7l0.9,0.5c0.1,0,0.2,0.1,0.2,0.1   c0.2,0,0.3-0.1,0.4-0.2C18.8,31.7,18.7,31.4,18.5,31.3z"/><path d="M11.3,34.5l1.8,0.8c0.1,0,0.1,0,0.2,0c0.2,0,0.4-0.1,0.5-0.3c0.1-0.3,0-0.5-0.3-0.7l-1.8-0.8c-0.3-0.1-0.5,0-0.7,0.3   C11,34.1,11.1,34.4,11.3,34.5z"/><path d="M20,37.1l-1.8-0.8c-0.3-0.1-0.5,0-0.7,0.3c-0.1,0.3,0,0.5,0.3,0.7l1.8,0.8c0.1,0,0.1,0,0.2,0c0.2,0,0.4-0.1,0.5-0.3   C20.4,37.5,20.3,37.2,20,37.1z"/><path d="M14.8,35.4c-0.1,0.3,0,0.5,0.3,0.7l0.9,0.4c0.1,0,0.1,0,0.2,0c0.2,0,0.4-0.1,0.5-0.3c0.1-0.3,0-0.5-0.3-0.7l-0.9-0.4   C15.2,35,14.9,35.2,14.8,35.4z"/><path d="M9.6,39.7l1.9,0.5c0,0,0.1,0,0.1,0c0.2,0,0.4-0.1,0.5-0.4c0.1-0.3-0.1-0.5-0.4-0.6l-1.9-0.5c-0.3-0.1-0.5,0.1-0.6,0.4   C9.2,39.4,9.4,39.6,9.6,39.7z"/><path d="M16,40.9c-0.1,0.3,0.1,0.5,0.4,0.6l1.9,0.5c0,0,0.1,0,0.1,0c0.2,0,0.4-0.1,0.5-0.4c0.1-0.3-0.1-0.5-0.4-0.6l-1.9-0.5   C16.4,40.5,16.1,40.6,16,40.9z"/><path d="M14.5,41c0,0,0.1,0,0.1,0c0.2,0,0.4-0.1,0.5-0.4c0.1-0.3-0.1-0.5-0.4-0.6l-1-0.3c-0.3-0.1-0.5,0.1-0.6,0.4   c-0.1,0.3,0.1,0.5,0.4,0.6L14.5,41z"/><path d="M15.2,45.4c0,0.3,0.2,0.5,0.4,0.6l2,0.3c0,0,0,0,0.1,0c0.2,0,0.5-0.2,0.5-0.4c0-0.3-0.2-0.5-0.4-0.6l-2-0.3   C15.4,45,15.2,45.1,15.2,45.4z"/><path d="M12.2,45c0,0.3,0.2,0.5,0.4,0.6l1,0.1c0,0,0,0,0.1,0c0.2,0,0.5-0.2,0.5-0.4c0-0.3-0.2-0.5-0.4-0.6l-1-0.1   C12.5,44.6,12.2,44.8,12.2,45z"/><path d="M8.6,45.1l2,0.3c0,0,0,0,0.1,0c0.2,0,0.5-0.2,0.5-0.4c0-0.3-0.2-0.5-0.4-0.6l-2-0.3c-0.3,0-0.5,0.2-0.6,0.4   C8.2,44.8,8.4,45,8.6,45.1z"/><path d="M11.9,50c0,0.3,0.2,0.5,0.5,0.5h1c0.3,0,0.5-0.2,0.5-0.5s-0.2-0.5-0.5-0.5h-1C12.1,49.5,11.9,49.7,11.9,50z"/><path d="M10.4,50.5c0.3,0,0.5-0.2,0.5-0.5s-0.2-0.5-0.5-0.5h-2c-0.3,0-0.5,0.2-0.5,0.5s0.2,0.5,0.5,0.5H10.4z"/><path d="M17.4,50.5c0.3,0,0.5-0.2,0.5-0.5s-0.2-0.5-0.5-0.5h-2c-0.3,0-0.5,0.2-0.5,0.5s0.2,0.5,0.5,0.5H17.4z"/><path d="M12.7,55.4C12.7,55.4,12.7,55.4,12.7,55.4l1.1-0.1c0.3,0,0.5-0.3,0.4-0.6c0-0.3-0.3-0.5-0.6-0.4l-1,0.1   c-0.3,0-0.5,0.3-0.4,0.6C12.2,55.2,12.4,55.4,12.7,55.4z"/><path d="M15.7,55C15.7,55,15.7,55,15.7,55l2-0.3c0.3,0,0.5-0.3,0.4-0.6c0-0.3-0.3-0.5-0.6-0.4l-2,0.3c-0.3,0-0.5,0.3-0.4,0.6   C15.2,54.8,15.4,55,15.7,55z"/><path d="M11.2,55.1c0-0.3-0.3-0.5-0.6-0.4l-2,0.3c-0.3,0-0.5,0.3-0.4,0.6c0,0.3,0.2,0.4,0.5,0.4c0,0,0,0,0.1,0l2-0.3   C11,55.6,11.2,55.4,11.2,55.1z"/><path d="M12.2,60.1c-0.1-0.3-0.3-0.4-0.6-0.4l-1.9,0.5c-0.3,0.1-0.4,0.3-0.4,0.6c0.1,0.2,0.3,0.4,0.5,0.4c0,0,0.1,0,0.1,0l1.9-0.5   C12.1,60.7,12.3,60.4,12.2,60.1z"/><path d="M16.5,59.5c0,0,0.1,0,0.1,0l1.9-0.5c0.3-0.1,0.4-0.3,0.4-0.6c-0.1-0.3-0.3-0.4-0.6-0.4l-1.9,0.5c-0.3,0.1-0.4,0.3-0.4,0.6   C16.1,59.3,16.3,59.5,16.5,59.5z"/><path d="M13.6,60.3c0,0,0.1,0,0.1,0l1-0.3c0.3-0.1,0.4-0.3,0.4-0.6s-0.3-0.4-0.6-0.4l-1,0.3c-0.3,0.1-0.4,0.3-0.4,0.6   C13.2,60.1,13.4,60.3,13.6,60.3z"/><path d="M13.8,65c-0.1-0.3-0.4-0.4-0.7-0.3l-1.8,0.8c-0.3,0.1-0.4,0.4-0.3,0.7c0.1,0.2,0.3,0.3,0.5,0.3c0.1,0,0.1,0,0.2,0l1.8-0.8   C13.8,65.5,13.9,65.2,13.8,65z"/><path d="M16.6,63.8c-0.1-0.3-0.4-0.4-0.7-0.3L15,64c-0.3,0.1-0.4,0.4-0.3,0.7c0.1,0.2,0.3,0.3,0.5,0.3c0.1,0,0.1,0,0.2,0l0.9-0.4   C16.6,64.4,16.7,64.1,16.6,63.8z"/><path d="M20.3,62.3c-0.1-0.3-0.4-0.4-0.7-0.3l-1.8,0.8c-0.3,0.1-0.4,0.4-0.3,0.7c0.1,0.2,0.3,0.3,0.5,0.3c0.1,0,0.1,0,0.2,0L20,63   C20.3,62.9,20.4,62.6,20.3,62.3z"/><path d="M17.4,69.3c0.1,0,0.2,0,0.2-0.1l0.9-0.5c0.2-0.1,0.3-0.4,0.2-0.7c-0.1-0.2-0.4-0.3-0.7-0.2l-0.9,0.5   c-0.2,0.1-0.3,0.4-0.2,0.7C17.1,69.2,17.2,69.3,17.4,69.3z"/><path d="M15.4,69.4l-1.7,1c-0.2,0.1-0.3,0.4-0.2,0.7c0.1,0.2,0.3,0.2,0.4,0.2c0.1,0,0.2,0,0.2-0.1l1.7-1c0.2-0.1,0.3-0.4,0.2-0.7   C16,69.3,15.7,69.3,15.4,69.4z"/><path d="M20.3,67.8l1.7-1c0.2-0.1,0.3-0.4,0.2-0.7c-0.1-0.2-0.4-0.3-0.7-0.2l-1.7,1c-0.2,0.1-0.3,0.4-0.2,0.7   c0.1,0.2,0.3,0.2,0.4,0.2C20.1,67.8,20.2,67.8,20.3,67.8z"/><path d="M24.5,69.6c-0.2-0.2-0.5-0.3-0.7-0.1l-1.6,1.2c-0.2,0.2-0.3,0.5-0.1,0.7c0.1,0.1,0.2,0.2,0.4,0.2c0.1,0,0.2,0,0.3-0.1   l1.6-1.2C24.6,70.1,24.7,69.8,24.5,69.6z"/><path d="M20.4,73.3l0.8-0.6c0.2-0.2,0.3-0.5,0.1-0.7c-0.2-0.2-0.5-0.3-0.7-0.1l-0.8,0.6c-0.2,0.2-0.3,0.5-0.1,0.7   c0.1,0.1,0.2,0.2,0.4,0.2C20.2,73.4,20.4,73.4,20.4,73.3z"/><path d="M18.2,73.7L16.7,75c-0.2,0.2-0.3,0.5-0.1,0.7c0.1,0.1,0.2,0.2,0.4,0.2c0.1,0,0.2,0,0.3-0.1l1.6-1.2   c0.2-0.2,0.3-0.5,0.1-0.7C18.8,73.6,18.5,73.6,18.2,73.7z"/><path d="M25.5,75c0.1,0,0.3,0,0.4-0.1l1.4-1.4c0.2-0.2,0.2-0.5,0-0.7s-0.5-0.2-0.7,0l-1.4,1.4c-0.2,0.2-0.2,0.5,0,0.7   C25.3,75,25.4,75,25.5,75z"/><path d="M21.6,77.7l-1.4,1.4c-0.2,0.2-0.2,0.5,0,0.7c0.1,0.1,0.2,0.1,0.4,0.1s0.3,0,0.4-0.1l1.4-1.4c0.2-0.2,0.2-0.5,0-0.7   S21.8,77.5,21.6,77.7z"/><path d="M24.4,75.6c-0.2-0.2-0.5-0.2-0.7,0L23,76.3c-0.2,0.2-0.2,0.5,0,0.7c0.1,0.1,0.2,0.1,0.4,0.1s0.3,0,0.4-0.1l0.7-0.7   C24.6,76.1,24.6,75.8,24.4,75.6z"/><path d="M29.3,77.8l1.2-1.6c0.2-0.2,0.1-0.5-0.1-0.7c-0.2-0.2-0.5-0.1-0.7,0.1l-1.2,1.6c-0.2,0.2-0.1,0.5,0.1,0.7   c0.1,0.1,0.2,0.1,0.3,0.1C29.1,78,29.2,77.9,29.3,77.8z"/><path d="M25.5,81.2l-1.2,1.6c-0.2,0.2-0.1,0.5,0.1,0.7c0.1,0.1,0.2,0.1,0.3,0.1c0.2,0,0.3-0.1,0.4-0.2l1.2-1.6   c0.2-0.2,0.1-0.5-0.1-0.7S25.6,80.9,25.5,81.2z"/><path d="M27.3,78.8l-0.6,0.8c-0.2,0.2-0.1,0.5,0.1,0.7c0.1,0.1,0.2,0.1,0.3,0.1c0.2,0,0.3-0.1,0.4-0.2l0.6-0.8   c0.2-0.2,0.1-0.5-0.1-0.7S27.5,78.6,27.3,78.8z"/><path d="M30.4,83.9c-0.2-0.1-0.5-0.1-0.7,0.2l-1,1.7c-0.1,0.2-0.1,0.5,0.2,0.7c0.1,0,0.2,0.1,0.2,0.1c0.2,0,0.3-0.1,0.4-0.2l1-1.7   C30.8,84.4,30.7,84,30.4,83.9z"/><path d="M33.9,77.8c-0.2-0.1-0.5-0.1-0.7,0.2l-1,1.7c-0.1,0.2-0.1,0.5,0.2,0.7c0.1,0,0.2,0.1,0.2,0.1c0.2,0,0.3-0.1,0.4-0.2l1-1.7   C34.3,78.3,34.2,78,33.9,77.8z"/><path d="M31.9,81.3c-0.2-0.1-0.5-0.1-0.7,0.2l-0.5,0.9c-0.1,0.2-0.1,0.5,0.2,0.7c0.1,0,0.2,0.1,0.2,0.1c0.2,0,0.3-0.1,0.4-0.2   l0.5-0.9C32.3,81.8,32.2,81.4,31.9,81.3z"/><path d="M35,86.2c-0.3-0.1-0.5,0-0.7,0.3l-0.8,1.8c-0.1,0.3,0,0.5,0.3,0.7c0.1,0,0.1,0,0.2,0c0.2,0,0.4-0.1,0.5-0.3l0.8-1.8   C35.4,86.6,35.3,86.3,35,86.2z"/><path d="M36.2,83.4c-0.3-0.1-0.5,0-0.7,0.3l-0.4,0.9c-0.1,0.3,0,0.5,0.3,0.7c0.1,0,0.1,0,0.2,0c0.2,0,0.4-0.1,0.5-0.3l0.4-0.9   C36.6,83.8,36.4,83.5,36.2,83.4z"/><path d="M37.7,79.7c-0.3-0.1-0.5,0-0.7,0.3l-0.8,1.8c-0.1,0.3,0,0.5,0.3,0.7c0.1,0,0.1,0,0.2,0c0.2,0,0.4-0.1,0.5-0.3l0.8-1.8   C38.1,80.1,38,79.8,37.7,79.7z"/><path d="M40.7,84.9c-0.3-0.1-0.5,0.1-0.6,0.4l-0.3,1c-0.1,0.3,0.1,0.5,0.4,0.6c0,0,0.1,0,0.1,0c0.2,0,0.4-0.1,0.5-0.4l0.3-1   C41.1,85.3,40.9,85,40.7,84.9z"/><path d="M39.9,87.8c-0.3-0.1-0.5,0.1-0.6,0.4l-0.5,1.9c-0.1,0.3,0.1,0.5,0.4,0.6c0,0,0.1,0,0.1,0c0.2,0,0.4-0.1,0.5-0.4l0.5-1.9   C40.3,88.2,40.1,87.9,39.9,87.8z"/><path d="M41.7,81.1c-0.3-0.1-0.5,0.1-0.6,0.4l-0.5,1.9c-0.1,0.3,0.1,0.5,0.4,0.6c0,0,0.1,0,0.1,0c0.2,0,0.4-0.1,0.5-0.4l0.5-1.9   C42.1,81.4,42,81.1,41.7,81.1z"/><path d="M45.3,85.8c-0.3,0-0.5,0.2-0.6,0.4l-0.1,1c0,0.3,0.2,0.5,0.4,0.6c0,0,0,0,0.1,0c0.2,0,0.5-0.2,0.5-0.4l0.1-1   C45.8,86.1,45.6,85.9,45.3,85.8z"/><path d="M44.9,88.8c-0.3,0-0.5,0.2-0.6,0.4l-0.3,2c0,0.3,0.2,0.5,0.4,0.6c0,0,0,0,0.1,0c0.2,0,0.5-0.2,0.5-0.4l0.3-2   C45.4,89.1,45.2,88.8,44.9,88.8z"/><path d="M45.8,81.9c-0.3,0-0.5,0.2-0.6,0.4l-0.3,2c0,0.3,0.2,0.5,0.4,0.6c0,0,0,0,0.1,0c0.2,0,0.5-0.2,0.5-0.4l0.3-2   C46.3,82.2,46.1,81.9,45.8,81.9z"/><path d="M50,82.1c-0.3,0-0.5,0.2-0.5,0.5v2c0,0.3,0.2,0.5,0.5,0.5s0.5-0.2,0.5-0.5v-2C50.5,82.4,50.3,82.1,50,82.1z"/><path d="M50,89.1c-0.3,0-0.5,0.2-0.5,0.5v2c0,0.3,0.2,0.5,0.5,0.5s0.5-0.2,0.5-0.5v-2C50.5,89.4,50.3,89.1,50,89.1z"/><path d="M50,86.1c-0.3,0-0.5,0.2-0.5,0.5v1c0,0.3,0.2,0.5,0.5,0.5s0.5-0.2,0.5-0.5v-1C50.5,86.4,50.3,86.1,50,86.1z"/><path d="M55.1,88.8c-0.3,0-0.5,0.3-0.4,0.6l0.3,2c0,0.3,0.2,0.4,0.5,0.4c0,0,0,0,0.1,0c0.3,0,0.5-0.3,0.4-0.6l-0.3-2   C55.6,89,55.4,88.8,55.1,88.8z"/><path d="M55,87.8c0.3,0,0.5-0.3,0.4-0.6l-0.1-1c0-0.3-0.3-0.5-0.6-0.4c-0.3,0-0.5,0.3-0.4,0.6l0.1,1C54.5,87.6,54.7,87.8,55,87.8   C54.9,87.8,55,87.8,55,87.8z"/><path d="M54.6,84.8c0.3,0,0.5-0.3,0.4-0.6l-0.3-2c0-0.3-0.3-0.5-0.6-0.4c-0.3,0-0.5,0.3-0.4,0.6l0.3,2   C54.1,84.7,54.3,84.8,54.6,84.8C54.6,84.8,54.6,84.8,54.6,84.8z"/><path d="M60.2,86.2l-0.3-1c-0.1-0.3-0.3-0.4-0.6-0.4c-0.3,0.1-0.4,0.3-0.4,0.6l0.3,1c0.1,0.2,0.3,0.4,0.5,0.4c0,0,0.1,0,0.1,0   C60.1,86.8,60.3,86.5,60.2,86.2z"/><path d="M60.8,88.2c-0.1-0.3-0.3-0.4-0.6-0.4c-0.3,0.1-0.4,0.3-0.4,0.6l0.5,1.9c0.1,0.2,0.3,0.4,0.5,0.4c0,0,0.1,0,0.1,0   c0.3-0.1,0.4-0.3,0.4-0.6L60.8,88.2z"/><path d="M59.5,83.3l-0.5-1.9c-0.1-0.3-0.3-0.4-0.6-0.4c-0.3,0.1-0.4,0.3-0.4,0.6l0.5,1.9c0.1,0.2,0.3,0.4,0.5,0.4c0,0,0.1,0,0.1,0   C59.4,83.9,59.5,83.6,59.5,83.3z"/><path d="M63.7,81.8L63,80c-0.1-0.3-0.4-0.4-0.7-0.3c-0.3,0.1-0.4,0.4-0.3,0.7l0.8,1.8c0.1,0.2,0.3,0.3,0.5,0.3c0.1,0,0.1,0,0.2,0   C63.7,82.4,63.8,82.1,63.7,81.8z"/><path d="M64.9,84.6l-0.4-0.9c-0.1-0.3-0.4-0.4-0.7-0.3c-0.3,0.1-0.4,0.4-0.3,0.7L64,85c0.1,0.2,0.3,0.3,0.5,0.3c0.1,0,0.1,0,0.2,0   C64.9,85.1,65,84.8,64.9,84.6z"/><path d="M65.6,86.4c-0.1-0.3-0.4-0.4-0.7-0.3c-0.3,0.1-0.4,0.4-0.3,0.7l0.8,1.8c0.1,0.2,0.3,0.3,0.5,0.3c0.1,0,0.1,0,0.2,0   c0.3-0.1,0.4-0.4,0.3-0.7L65.6,86.4z"/><path d="M68.8,81.5c-0.1-0.2-0.4-0.3-0.7-0.2c-0.2,0.1-0.3,0.4-0.2,0.7l0.5,0.9c0.1,0.2,0.3,0.2,0.4,0.2c0.1,0,0.2,0,0.2-0.1   c0.2-0.1,0.3-0.4,0.2-0.7L68.8,81.5z"/><path d="M70.3,84.1c-0.1-0.2-0.4-0.3-0.7-0.2c-0.2,0.1-0.3,0.4-0.2,0.7l1,1.7c0.1,0.2,0.3,0.2,0.4,0.2c0.1,0,0.2,0,0.2-0.1   c0.2-0.1,0.3-0.4,0.2-0.7L70.3,84.1z"/><path d="M66.8,78c-0.1-0.2-0.4-0.3-0.7-0.2c-0.2,0.1-0.3,0.4-0.2,0.7l1,1.7c0.1,0.2,0.3,0.2,0.4,0.2c0.1,0,0.2,0,0.2-0.1   c0.2-0.1,0.3-0.4,0.2-0.7L66.8,78z"/><path d="M74.5,81.1c-0.2-0.2-0.5-0.3-0.7-0.1c-0.2,0.2-0.3,0.5-0.1,0.7l1.2,1.6c0.1,0.1,0.2,0.2,0.4,0.2c0.1,0,0.2,0,0.3-0.1   c0.2-0.2,0.3-0.5,0.1-0.7L74.5,81.1z"/><path d="M72.7,78.8c-0.2-0.2-0.5-0.3-0.7-0.1c-0.2,0.2-0.3,0.5-0.1,0.7l0.6,0.8c0.1,0.1,0.2,0.2,0.4,0.2c0.1,0,0.2,0,0.3-0.1   c0.2-0.2,0.3-0.5,0.1-0.7L72.7,78.8z"/><path d="M70.3,75.6c-0.2-0.2-0.5-0.3-0.7-0.1c-0.2,0.2-0.3,0.5-0.1,0.7l1.2,1.6c0.1,0.1,0.2,0.2,0.4,0.2c0.1,0,0.2,0,0.3-0.1   c0.2-0.2,0.3-0.5,0.1-0.7L70.3,75.6z"/><path d="M78.4,77.7c-0.2-0.2-0.5-0.2-0.7,0s-0.2,0.5,0,0.7l1.4,1.4c0.1,0.1,0.2,0.1,0.4,0.1s0.3,0,0.4-0.1c0.2-0.2,0.2-0.5,0-0.7   L78.4,77.7z"/><path d="M76.3,75.6c-0.2-0.2-0.5-0.2-0.7,0s-0.2,0.5,0,0.7l0.7,0.7c0.1,0.1,0.2,0.1,0.4,0.1s0.3,0,0.4-0.1c0.2-0.2,0.2-0.5,0-0.7   L76.3,75.6z"/><path d="M74.2,74.8c0.1,0.1,0.2,0.1,0.4,0.1s0.3,0,0.4-0.1c0.2-0.2,0.2-0.5,0-0.7l-1.4-1.4c-0.2-0.2-0.5-0.2-0.7,0s-0.2,0.5,0,0.7   L74.2,74.8z"/><path d="M79.4,71.9c-0.2-0.2-0.5-0.1-0.7,0.1c-0.2,0.2-0.1,0.5,0.1,0.7l0.8,0.6c0.1,0.1,0.2,0.1,0.3,0.1c0.2,0,0.3-0.1,0.4-0.2   c0.2-0.2,0.1-0.5-0.1-0.7L79.4,71.9z"/><path d="M77.8,70.7l-1.6-1.2c-0.2-0.2-0.5-0.1-0.7,0.1c-0.2,0.2-0.1,0.5,0.1,0.7l1.6,1.2c0.1,0.1,0.2,0.1,0.3,0.1   c0.2,0,0.3-0.1,0.4-0.2C78.1,71.2,78,70.9,77.8,70.7z"/><path d="M81.8,73.7c-0.2-0.2-0.5-0.1-0.7,0.1c-0.2,0.2-0.1,0.5,0.1,0.7l1.6,1.2c0.1,0.1,0.2,0.1,0.3,0.1c0.2,0,0.3-0.1,0.4-0.2   c0.2-0.2,0.1-0.5-0.1-0.7L81.8,73.7z"/><path d="M80.3,66.9l-1.7-1c-0.2-0.1-0.5-0.1-0.7,0.2c-0.1,0.2-0.1,0.5,0.2,0.7l1.7,1c0.1,0,0.2,0.1,0.2,0.1c0.2,0,0.3-0.1,0.4-0.2   C80.6,67.3,80.5,67,80.3,66.9z"/><path d="M86.3,70.4l-1.7-1c-0.2-0.1-0.5-0.1-0.7,0.2c-0.1,0.2-0.1,0.5,0.2,0.7l1.7,1c0.1,0,0.2,0.1,0.2,0.1c0.2,0,0.3-0.1,0.4-0.2   C86.6,70.8,86.6,70.5,86.3,70.4z"/><path d="M81.5,68.7l0.9,0.5c0.1,0,0.2,0.1,0.2,0.1c0.2,0,0.3-0.1,0.4-0.2c0.1-0.2,0.1-0.5-0.2-0.7L82,67.9   c-0.2-0.1-0.5-0.1-0.7,0.2C81.2,68.3,81.3,68.6,81.5,68.7z"/><path d="M88.7,65.5l-1.8-0.8c-0.3-0.1-0.5,0-0.7,0.3c-0.1,0.3,0,0.5,0.3,0.7l1.8,0.8c0.1,0,0.1,0,0.2,0c0.2,0,0.4-0.1,0.5-0.3   C89,65.9,88.9,65.6,88.7,65.5z"/><path d="M80,62.9l1.8,0.8c0.1,0,0.1,0,0.2,0c0.2,0,0.4-0.1,0.5-0.3c0.1-0.3,0-0.5-0.3-0.7L80.4,62c-0.3-0.1-0.5,0-0.7,0.3   C79.6,62.5,79.7,62.8,80,62.9z"/><path d="M84.8,64.9c0.2,0,0.4-0.1,0.5-0.3c0.1-0.3,0-0.5-0.3-0.7l-0.9-0.4c-0.3-0.1-0.5,0-0.7,0.3c-0.1,0.3,0,0.5,0.3,0.7l0.9,0.4   C84.7,64.9,84.7,64.9,84.8,64.9z"/><path d="M85.3,60l1,0.3c0,0,0.1,0,0.1,0c0.2,0,0.4-0.1,0.5-0.4c0.1-0.3-0.1-0.5-0.4-0.6l-1-0.3c-0.3-0.1-0.5,0.1-0.6,0.4   C84.8,59.6,85,59.9,85.3,60z"/><path d="M83.5,59.5c0.2,0,0.4-0.1,0.5-0.4c0.1-0.3-0.1-0.5-0.4-0.6L81.7,58c-0.3-0.1-0.5,0.1-0.6,0.4c-0.1,0.3,0.1,0.5,0.4,0.6   l1.9,0.5C83.4,59.5,83.4,59.5,83.5,59.5z"/><path d="M90.4,60.3l-1.9-0.5c-0.3-0.1-0.5,0.1-0.6,0.4c-0.1,0.3,0.1,0.5,0.4,0.6l1.9,0.5c0,0,0.1,0,0.1,0c0.2,0,0.4-0.1,0.5-0.4   C90.8,60.6,90.6,60.4,90.4,60.3z"/><path d="M84.4,55c0.2,0,0.5-0.2,0.5-0.4c0-0.3-0.2-0.5-0.4-0.6l-2-0.3c-0.3,0-0.5,0.2-0.6,0.4c0,0.3,0.2,0.5,0.4,0.6L84.4,55   C84.3,55,84.3,55,84.4,55z"/><path d="M87.3,55.4c0.2,0,0.5-0.2,0.5-0.4c0-0.3-0.2-0.5-0.4-0.6l-1-0.1c-0.3,0-0.5,0.2-0.6,0.4c0,0.3,0.2,0.5,0.4,0.6L87.3,55.4   C87.3,55.4,87.3,55.4,87.3,55.4z"/><path d="M91.4,54.9l-2-0.3c-0.3,0-0.5,0.2-0.6,0.4c0,0.3,0.2,0.5,0.4,0.6l2,0.3c0,0,0,0,0.1,0c0.2,0,0.5-0.2,0.5-0.4   C91.8,55.2,91.6,55,91.4,54.9z"/><path d="M88.1,50c0-0.3-0.2-0.5-0.5-0.5h-1c-0.3,0-0.5,0.2-0.5,0.5s0.2,0.5,0.5,0.5h1C87.9,50.5,88.1,50.3,88.1,50z"/><path d="M91.6,49.5h-2c-0.3,0-0.5,0.2-0.5,0.5s0.2,0.5,0.5,0.5h2c0.3,0,0.5-0.2,0.5-0.5S91.9,49.5,91.6,49.5z"/><path d="M85.1,50c0-0.3-0.2-0.5-0.5-0.5h-2c-0.3,0-0.5,0.2-0.5,0.5s0.2,0.5,0.5,0.5h2C84.9,50.5,85.1,50.3,85.1,50z"/><path d="M81.9,45.8c0,0.3,0.2,0.4,0.5,0.4c0,0,0,0,0.1,0l2-0.3c0.3,0,0.5-0.3,0.4-0.6c0-0.3-0.3-0.5-0.6-0.4l-2,0.3   C82,45.3,81.8,45.5,81.9,45.8z"/><path d="M88.8,44.9c0,0.3,0.2,0.4,0.5,0.4c0,0,0,0,0.1,0l2-0.3c0.3,0,0.5-0.3,0.4-0.6s-0.3-0.5-0.6-0.4l-2,0.3   C89,44.4,88.8,44.6,88.8,44.9z"/><path d="M85.8,45.3c0,0.3,0.2,0.4,0.5,0.4c0,0,0,0,0.1,0l1-0.1c0.3,0,0.5-0.3,0.4-0.6c0-0.3-0.3-0.5-0.6-0.4l-1,0.1   C86,44.7,85.8,45,85.8,45.3z"/><path d="M86.2,39.8l-1,0.3c-0.3,0.1-0.4,0.3-0.4,0.6c0.1,0.2,0.3,0.4,0.5,0.4c0,0,0.1,0,0.1,0l1-0.3c0.3-0.1,0.4-0.3,0.4-0.6   S86.5,39.7,86.2,39.8z"/><path d="M83.3,40.5l-1.9,0.5c-0.3,0.1-0.4,0.3-0.4,0.6c0.1,0.2,0.3,0.4,0.5,0.4c0,0,0.1,0,0.1,0l1.9-0.5c0.3-0.1,0.4-0.3,0.4-0.6   C83.9,40.6,83.6,40.5,83.3,40.5z"/><path d="M87.8,39.9c0.1,0.2,0.3,0.4,0.5,0.4c0,0,0.1,0,0.1,0l1.9-0.5c0.3-0.1,0.4-0.3,0.4-0.6c-0.1-0.3-0.3-0.4-0.6-0.4l-1.9,0.5   C87.9,39.3,87.7,39.6,87.8,39.9z"/><path d="M86.2,35c0.1,0.2,0.3,0.3,0.5,0.3c0.1,0,0.1,0,0.2,0l1.8-0.8c0.3-0.1,0.4-0.4,0.3-0.7c-0.1-0.3-0.4-0.4-0.7-0.3l-1.8,0.8   C86.2,34.5,86.1,34.8,86.2,35z"/><path d="M83.4,36.2c0.1,0.2,0.3,0.3,0.5,0.3c0.1,0,0.1,0,0.2,0L85,36c0.3-0.1,0.4-0.4,0.3-0.7c-0.1-0.3-0.4-0.4-0.7-0.3l-0.9,0.4   C83.4,35.6,83.3,35.9,83.4,36.2z"/><path d="M79.7,37.7c0.1,0.2,0.3,0.3,0.5,0.3c0.1,0,0.1,0,0.2,0l1.8-0.8c0.3-0.1,0.4-0.4,0.3-0.7s-0.4-0.4-0.7-0.3L80,37   C79.7,37.1,79.6,37.4,79.7,37.7z"/><path d="M82.3,30.7l-0.9,0.5c-0.2,0.1-0.3,0.4-0.2,0.7c0.1,0.2,0.3,0.2,0.4,0.2c0.1,0,0.2,0,0.2-0.1l0.9-0.5   c0.2-0.1,0.3-0.4,0.2-0.7C82.9,30.7,82.6,30.6,82.3,30.7z"/><path d="M79.7,32.2l-1.7,1c-0.2,0.1-0.3,0.4-0.2,0.7c0.1,0.2,0.3,0.2,0.4,0.2c0.1,0,0.2,0,0.2-0.1l1.7-1c0.2-0.1,0.3-0.4,0.2-0.7   C80.3,32.2,80,32.1,79.7,32.2z"/><path d="M84.3,30.7c0.1,0,0.2,0,0.2-0.1l1.7-1c0.2-0.1,0.3-0.4,0.2-0.7c-0.1-0.2-0.4-0.3-0.7-0.2l-1.7,1c-0.2,0.1-0.3,0.4-0.2,0.7   C84,30.6,84.2,30.7,84.3,30.7z"/><path d="M75.5,30.4c0.1,0.1,0.2,0.2,0.4,0.2c0.1,0,0.2,0,0.3-0.1l1.6-1.2c0.2-0.2,0.3-0.5,0.1-0.7c-0.2-0.2-0.5-0.3-0.7-0.1   l-1.6,1.2C75.4,29.9,75.3,30.2,75.5,30.4z"/><path d="M79.6,26.7l-0.8,0.6c-0.2,0.2-0.3,0.5-0.1,0.7c0.1,0.1,0.2,0.2,0.4,0.2c0.1,0,0.2,0,0.3-0.1l0.8-0.6   c0.2-0.2,0.3-0.5,0.1-0.7C80.1,26.6,79.8,26.5,79.6,26.7z"/><path d="M81.4,26.4c0.1,0,0.2,0,0.3-0.1l1.6-1.2c0.2-0.2,0.3-0.5,0.1-0.7c-0.2-0.2-0.5-0.3-0.7-0.1l-1.6,1.2   c-0.2,0.2-0.3,0.5-0.1,0.7C81.1,26.3,81.3,26.4,81.4,26.4z"/><path d="M74.1,25.1l-1.4,1.4c-0.2,0.2-0.2,0.5,0,0.7c0.1,0.1,0.2,0.1,0.4,0.1s0.3,0,0.4-0.1l1.4-1.4c0.2-0.2,0.2-0.5,0-0.7   S74.3,24.9,74.1,25.1z"/><path d="M78,22.5c0.1,0,0.3,0,0.4-0.1l1.4-1.4c0.2-0.2,0.2-0.5,0-0.7s-0.5-0.2-0.7,0l-1.4,1.4c-0.2,0.2-0.2,0.5,0,0.7   C77.8,22.4,77.9,22.5,78,22.5z"/><path d="M75.6,24.4c0.1,0.1,0.2,0.1,0.4,0.1s0.3,0,0.4-0.1l0.7-0.7c0.2-0.2,0.2-0.5,0-0.7s-0.5-0.2-0.7,0l-0.7,0.7   C75.4,23.9,75.4,24.2,75.6,24.4z"/><path d="M74.1,19c0.2,0,0.3-0.1,0.4-0.2l1.2-1.6c0.2-0.2,0.1-0.5-0.1-0.7c-0.2-0.2-0.5-0.1-0.7,0.1l-1.2,1.6   c-0.2,0.2-0.1,0.5,0.1,0.7C73.9,19,74,19,74.1,19z"/><path d="M72.3,21.4c0.2,0,0.3-0.1,0.4-0.2l0.6-0.8c0.2-0.2,0.1-0.5-0.1-0.7c-0.2-0.2-0.5-0.1-0.7,0.1l-0.6,0.8   c-0.2,0.2-0.1,0.5,0.1,0.7C72.1,21.4,72.2,21.4,72.3,21.4z"/><path d="M70.7,22.2l-1.2,1.6c-0.2,0.2-0.1,0.5,0.1,0.7c0.1,0.1,0.2,0.1,0.3,0.1c0.2,0,0.3-0.1,0.4-0.2l1.2-1.6   c0.2-0.2,0.1-0.5-0.1-0.7C71.2,21.9,70.9,22,70.7,22.2z"/><path d="M66.1,22.2c0.1,0,0.2,0.1,0.2,0.1c0.2,0,0.3-0.1,0.4-0.2l1-1.7c0.1-0.2,0.1-0.5-0.2-0.7c-0.2-0.1-0.5-0.1-0.7,0.2l-1,1.7   C65.7,21.7,65.8,22,66.1,22.2z"/><path d="M68.1,18.7c0.1,0,0.2,0.1,0.2,0.1c0.2,0,0.3-0.1,0.4-0.2l0.5-0.9c0.1-0.2,0.1-0.5-0.2-0.7s-0.5-0.1-0.7,0.2L67.9,18   C67.7,18.2,67.8,18.6,68.1,18.7z"/><path d="M69.6,16.1c0.1,0,0.2,0.1,0.2,0.1c0.2,0,0.3-0.1,0.4-0.2l1-1.7c0.1-0.2,0.1-0.5-0.2-0.7c-0.2-0.1-0.5-0.1-0.7,0.2l-1,1.7   C69.2,15.6,69.3,16,69.6,16.1z"/><path d="M65,13.8c0.1,0,0.1,0,0.2,0c0.2,0,0.4-0.1,0.5-0.3l0.8-1.8c0.1-0.3,0-0.5-0.3-0.7c-0.3-0.1-0.5,0-0.7,0.3l-0.8,1.8   C64.6,13.4,64.7,13.7,65,13.8z"/><path d="M62.3,20.3c0.1,0,0.1,0,0.2,0c0.2,0,0.4-0.1,0.5-0.3l0.8-1.8c0.1-0.3,0-0.5-0.3-0.7c-0.3-0.1-0.5,0-0.7,0.3L62,19.6   C61.9,19.9,62,20.2,62.3,20.3z"/><path d="M63.8,16.6c0.1,0,0.1,0,0.2,0c0.2,0,0.4-0.1,0.5-0.3l0.4-0.9c0.1-0.3,0-0.5-0.3-0.7c-0.3-0.1-0.5,0-0.7,0.3l-0.4,0.9   C63.4,16.2,63.6,16.5,63.8,16.6z"/><path d="M58.3,18.9c0,0,0.1,0,0.1,0c0.2,0,0.4-0.1,0.5-0.4l0.5-1.9c0.1-0.3-0.1-0.5-0.4-0.6c-0.3-0.1-0.5,0.1-0.6,0.4L58,18.3   C57.9,18.6,58,18.9,58.3,18.9z"/><path d="M60.1,12.2c0,0,0.1,0,0.1,0c0.2,0,0.4-0.1,0.5-0.4l0.5-1.9c0.1-0.3-0.1-0.5-0.4-0.6c-0.3-0.1-0.5,0.1-0.6,0.4l-0.5,1.9   C59.7,11.8,59.9,12.1,60.1,12.2z"/><path d="M59.3,15.1c0,0,0.1,0,0.1,0c0.2,0,0.4-0.1,0.5-0.4l0.3-1c0.1-0.3-0.1-0.5-0.4-0.6c-0.3-0.1-0.5,0.1-0.6,0.4l-0.3,1   C58.9,14.7,59.1,15,59.3,15.1z"/><path d="M54.7,14.2C54.7,14.2,54.8,14.2,54.7,14.2c0.3,0,0.5-0.2,0.6-0.4l0.1-1c0-0.3-0.2-0.5-0.4-0.6c-0.3,0-0.5,0.2-0.6,0.4   l-0.1,1C54.2,13.9,54.4,14.1,54.7,14.2z"/><path d="M55.1,11.2C55.1,11.2,55.1,11.2,55.1,11.2c0.3,0,0.5-0.2,0.6-0.4l0.3-2c0-0.3-0.2-0.5-0.4-0.6c-0.3,0-0.5,0.2-0.6,0.4   l-0.3,2C54.6,10.9,54.8,11.2,55.1,11.2z"/><path d="M54.2,18.1C54.2,18.1,54.2,18.1,54.2,18.1c0.3,0,0.5-0.2,0.6-0.4l0.3-2c0-0.3-0.2-0.5-0.4-0.6c-0.3,0-0.5,0.2-0.6,0.4   l-0.3,2C53.7,17.8,53.9,18.1,54.2,18.1z"/><path d="M26.2,49.5h-5.8c-0.3,0-0.5,0.2-0.5,0.5s0.2,0.5,0.5,0.5h5.8c0.3,0,0.5-0.2,0.5-0.5S26.5,49.5,26.2,49.5z"/><path d="M20.7,55.1C20.8,55.1,20.8,55.1,20.7,55.1l5.8-0.9c0.3,0,0.5-0.3,0.4-0.6c0-0.3-0.3-0.5-0.6-0.4l-5.7,0.9   c-0.3,0-0.5,0.3-0.4,0.6C20.3,55,20.5,55.1,20.7,55.1z"/><path d="M45.1,20.1c-0.3,0-0.5,0.3-0.4,0.6l0.9,5.7c0,0.2,0.3,0.4,0.5,0.4c0,0,0.1,0,0.1,0c0.3,0,0.5-0.3,0.4-0.6l-0.9-5.7   C45.6,20.2,45.4,20,45.1,20.1z"/><path d="M40.5,21.2c-0.3,0.1-0.4,0.4-0.3,0.6l1.8,5.5c0.1,0.2,0.3,0.3,0.5,0.3c0.1,0,0.1,0,0.2,0c0.3-0.1,0.4-0.4,0.3-0.6l-1.8-5.5   C41,21.2,40.8,21.1,40.5,21.2z"/><path d="M36.8,23.2c-0.1-0.2-0.4-0.3-0.7-0.2c-0.2,0.1-0.3,0.4-0.2,0.7l2.6,5.2c0.1,0.2,0.3,0.3,0.4,0.3c0.1,0,0.2,0,0.2-0.1   c0.2-0.1,0.3-0.4,0.2-0.7L36.8,23.2z"/><path d="M32.1,25.5c-0.2,0.2-0.3,0.5-0.1,0.7l3.4,4.7c0.1,0.1,0.2,0.2,0.4,0.2c0.1,0,0.2,0,0.3-0.1c0.2-0.2,0.3-0.5,0.1-0.7   l-3.4-4.7C32.6,25.3,32.3,25.3,32.1,25.5z"/><path d="M32.6,33.3c0.1,0.1,0.2,0.1,0.4,0.1s0.3,0,0.4-0.1c0.2-0.2,0.2-0.5,0-0.7l-4.1-4.1c-0.2-0.2-0.5-0.2-0.7,0s-0.2,0.5,0,0.7   L32.6,33.3z"/><path d="M26.1,32c-0.2-0.2-0.5-0.1-0.7,0.1c-0.2,0.2-0.1,0.5,0.1,0.7l4.7,3.4c0.1,0.1,0.2,0.1,0.3,0.1c0.2,0,0.3-0.1,0.4-0.2   c0.2-0.2,0.1-0.5-0.1-0.7L26.1,32z"/><path d="M23,36.2c-0.1,0.2,0,0.5,0.2,0.7l5.2,2.6c0.1,0,0.2,0.1,0.2,0.1c0.2,0,0.4-0.1,0.4-0.3c0.1-0.2,0-0.5-0.2-0.7l-5.2-2.6   C23.4,35.8,23.1,35.9,23,36.2z"/><path d="M21.2,40.5c-0.1,0.3,0.1,0.5,0.3,0.6l5.5,1.8c0.1,0,0.1,0,0.2,0c0.2,0,0.4-0.1,0.5-0.3c0.1-0.3-0.1-0.5-0.3-0.6l-5.5-1.8   C21.5,40.1,21.2,40.3,21.2,40.5z"/><path d="M20.1,45.1c0,0.3,0.1,0.5,0.4,0.6l5.7,0.9c0,0,0.1,0,0.1,0c0.2,0,0.5-0.2,0.5-0.4c0-0.3-0.1-0.5-0.4-0.6l-5.7-0.9   C20.4,44.7,20.1,44.8,20.1,45.1z"/><path d="M21.6,59.5c0.1,0,0.1,0,0.2,0l5.5-1.8c0.3-0.1,0.4-0.4,0.3-0.6c-0.1-0.3-0.4-0.4-0.6-0.3l-5.5,1.8   c-0.3,0.1-0.4,0.4-0.3,0.6C21.2,59.3,21.4,59.5,21.6,59.5z"/><path d="M23.4,63.8c0.1,0,0.2,0,0.2-0.1l5.2-2.6c0.2-0.1,0.3-0.4,0.2-0.7c-0.1-0.2-0.4-0.3-0.7-0.2l-5.2,2.6   C23,63,22.9,63.3,23,63.5C23.1,63.7,23.2,63.8,23.4,63.8z"/><path d="M31,63.5c-0.2-0.2-0.5-0.3-0.7-0.1l-4.7,3.4c-0.2,0.2-0.3,0.5-0.1,0.7c0.1,0.1,0.2,0.2,0.4,0.2c0.1,0,0.2,0,0.3-0.1   l4.7-3.4C31.1,64.1,31.1,63.8,31,63.5z"/><path d="M28.9,71.3c0.1,0,0.3,0,0.4-0.1l4.1-4.1c0.2-0.2,0.2-0.5,0-0.7s-0.5-0.2-0.7,0l-4.1,4.1c-0.2,0.2-0.2,0.5,0,0.7   C28.6,71.2,28.7,71.3,28.9,71.3z"/><path d="M32.1,74.2c0.1,0.1,0.2,0.1,0.3,0.1c0.2,0,0.3-0.1,0.4-0.2l3.4-4.7c0.2-0.2,0.1-0.5-0.1-0.7c-0.2-0.2-0.5-0.1-0.7,0.1   L32,73.5C31.8,73.7,31.9,74,32.1,74.2z"/><path d="M36.2,76.7c0.1,0,0.2,0.1,0.2,0.1c0.2,0,0.4-0.1,0.4-0.3l2.6-5.2c0.1-0.2,0-0.5-0.2-0.7c-0.2-0.1-0.5,0-0.7,0.2L35.9,76   C35.8,76.2,35.9,76.5,36.2,76.7z"/><path d="M42.6,72c-0.3-0.1-0.5,0.1-0.6,0.3l-1.8,5.5c-0.1,0.3,0.1,0.5,0.3,0.6c0.1,0,0.1,0,0.2,0c0.2,0,0.4-0.1,0.5-0.3l1.8-5.5   C43,72.4,42.9,72.1,42.6,72z"/><path d="M46.2,72.8c-0.3,0-0.5,0.1-0.6,0.4L44.7,79c0,0.3,0.1,0.5,0.4,0.6c0,0,0.1,0,0.1,0c0.2,0,0.5-0.2,0.5-0.4l0.9-5.7   C46.6,73.1,46.5,72.9,46.2,72.8z"/><path d="M50.3,79.4v-5.8c0-0.3-0.2-0.5-0.5-0.5s-0.5,0.2-0.5,0.5v5.8c0,0.3,0.2,0.5,0.5,0.5S50.3,79.7,50.3,79.4z"/><path d="M54.5,79.6C54.5,79.6,54.5,79.6,54.5,79.6c0.4,0,0.5-0.3,0.5-0.6L54,73.3c0-0.3-0.3-0.5-0.6-0.4c-0.3,0-0.5,0.3-0.4,0.6   l0.9,5.7C54,79.4,54.2,79.6,54.5,79.6z"/><path d="M59,78.5c0.1,0,0.1,0,0.2,0c0.3-0.1,0.4-0.4,0.3-0.6l-1.8-5.5C57.6,72,57.3,71.9,57,72c-0.3,0.1-0.4,0.4-0.3,0.6l1.8,5.5   C58.6,78.4,58.8,78.5,59,78.5z"/><path d="M62.8,76.4c0.1,0.2,0.3,0.3,0.4,0.3c0.1,0,0.2,0,0.2-0.1c0.2-0.1,0.3-0.4,0.2-0.7l-2.6-5.2c-0.1-0.2-0.4-0.3-0.7-0.2   c-0.2,0.1-0.3,0.4-0.2,0.7L62.8,76.4z"/><path d="M67.2,74.3c0.1,0,0.2,0,0.3-0.1c0.2-0.2,0.3-0.5,0.1-0.7l-3.4-4.7c-0.2-0.2-0.5-0.3-0.7-0.1c-0.2,0.2-0.3,0.5-0.1,0.7   l3.4,4.7C66.9,74.2,67.1,74.3,67.2,74.3z"/><path d="M70.8,71.3c0.1,0,0.3,0,0.4-0.1c0.2-0.2,0.2-0.5,0-0.7L67,66.3c-0.2-0.2-0.5-0.2-0.7,0s-0.2,0.5,0,0.7l4.1,4.1   C70.5,71.2,70.6,71.3,70.8,71.3z"/><path d="M73.8,67.7c0.2,0,0.3-0.1,0.4-0.2c0.2-0.2,0.1-0.5-0.1-0.7l-4.7-3.4c-0.2-0.2-0.5-0.1-0.7,0.1c-0.2,0.2-0.1,0.5,0.1,0.7   l4.7,3.4C73.6,67.7,73.7,67.7,73.8,67.7z"/><path d="M76.2,63.8c0.2,0,0.4-0.1,0.4-0.3c0.1-0.2,0-0.5-0.2-0.7l-5.2-2.6c-0.2-0.1-0.5,0-0.7,0.2c-0.1,0.2,0,0.5,0.2,0.7l5.2,2.6   C76.1,63.7,76.1,63.8,76.2,63.8z"/><path d="M78,59.5c0.2,0,0.4-0.1,0.5-0.3c0.1-0.3-0.1-0.5-0.3-0.6l-5.5-1.8c-0.3-0.1-0.5,0.1-0.6,0.3c-0.1,0.3,0.1,0.5,0.3,0.6   l5.5,1.8C77.9,59.5,77.9,59.5,78,59.5z"/><path d="M79.1,54.9c0.2,0,0.5-0.2,0.5-0.4c0-0.3-0.1-0.5-0.4-0.6L73.4,53c-0.3,0-0.5,0.1-0.6,0.4S73,54,73.3,54L79.1,54.9   C79,54.9,79.1,54.9,79.1,54.9z"/><path d="M79.9,49.8c0-0.3-0.2-0.5-0.5-0.5h-5.8c-0.3,0-0.5,0.2-0.5,0.5s0.2,0.5,0.5,0.5h5.8C79.7,50.3,79.9,50.1,79.9,49.8z"/><path d="M72.8,46.2c0,0.2,0.3,0.4,0.5,0.4c0,0,0.1,0,0.1,0l5.7-0.9c0.3,0,0.5-0.3,0.4-0.6c0-0.3-0.3-0.5-0.6-0.4l-5.7,0.9   C73,45.6,72.8,45.9,72.8,46.2z"/><path d="M77.8,40.2L72.3,42c-0.3,0.1-0.4,0.4-0.3,0.6c0.1,0.2,0.3,0.3,0.5,0.3c0.1,0,0.1,0,0.2,0l5.5-1.8c0.3-0.1,0.4-0.4,0.3-0.6   C78.4,40.2,78.1,40.1,77.8,40.2z"/><path d="M76,35.9l-5.2,2.6c-0.2,0.1-0.3,0.4-0.2,0.7c0.1,0.2,0.3,0.3,0.4,0.3c0.1,0,0.2,0,0.2-0.1l5.2-2.6c0.2-0.1,0.3-0.4,0.2-0.7   C76.5,35.9,76.2,35.8,76,35.9z"/><path d="M68.7,36.1c0.1,0.1,0.2,0.2,0.4,0.2c0.1,0,0.2,0,0.3-0.1l4.7-3.4c0.2-0.2,0.3-0.5,0.1-0.7c-0.2-0.2-0.5-0.3-0.7-0.1   l-4.7,3.4C68.6,35.6,68.5,35.9,68.7,36.1z"/><path d="M70.4,28.5l-4.1,4.1c-0.2,0.2-0.2,0.5,0,0.7c0.1,0.1,0.2,0.1,0.4,0.1s0.3,0,0.4-0.1l4.1-4.1c0.2-0.2,0.2-0.5,0-0.7   S70.6,28.3,70.4,28.5z"/><path d="M66.8,25.6l-3.4,4.7c-0.2,0.2-0.1,0.5,0.1,0.7c0.1,0.1,0.2,0.1,0.3,0.1c0.2,0,0.3-0.1,0.4-0.2l3.4-4.7   c0.2-0.2,0.1-0.5-0.1-0.7C67.3,25.3,67,25.3,66.8,25.6z"/><path d="M63.5,23c-0.2-0.1-0.5,0-0.7,0.2l-2.6,5.2c-0.1,0.2,0,0.5,0.2,0.7c0.1,0,0.2,0.1,0.2,0.1c0.2,0,0.4-0.1,0.4-0.3l2.6-5.2   C63.8,23.4,63.7,23.1,63.5,23z"/><path d="M57,27.6c0.1,0,0.1,0,0.2,0c0.2,0,0.4-0.1,0.5-0.3l1.8-5.5c0.1-0.3-0.1-0.5-0.3-0.6c-0.3-0.1-0.5,0.1-0.6,0.3L56.7,27   C56.6,27.3,56.8,27.6,57,27.6z"/><path d="M53.5,26.8C53.5,26.8,53.5,26.8,53.5,26.8c0.3,0,0.5-0.2,0.6-0.4l0.9-5.7c0-0.3-0.1-0.5-0.4-0.6c-0.3,0-0.5,0.1-0.6,0.4   L53,26.2C53,26.5,53.2,26.7,53.5,26.8z"/></g></svg>