<svg version="1.2" xmlns="http://www.w3.org/2000/svg" viewBox="0 0 1000 981" width="1000" height="981">
	<title>HanaFn_CI (1)-ai</title>
	<style>
		.s0 { fill: #009375 } 
		.s1 { fill: #d92128 } 
	</style>
	<path id="&lt;Path&gt; copy" class="s0" d="m952.7 220.2c-6.4-9.7-19-9.7-42.6-5.3-34.6 6.4-137.7 27.3-301.3 33-75.1 2.6-157.5 2.7-240.4-4.7-67.7-6-195.9-26.7-224.5-29.5-15.4-1.6-50.4-4-68.3 11-23.7 19.7-16.9 49-2.9 72.4 0 0 31.1 49.9 103 64.6 104.3 17.3 265.8 12.8 319 6.8 118.3-10.9 209.5-28 281.8-47.7 0 0 96.5-27.7 143.6-54.2 17.8-9.9 43.1-29.1 32.6-46.4z"/>
	<path id="&lt;Path&gt; copy 2" class="s0" d="m599.5 433.8c-58.9-31.9-129-32.1-187 1.1-93.4 53.5-126.1 171.2-70.4 267.3 45.5 71.4 106.4 54.3 123.7 36.2 21.7-24 13.5-48.8 2-64.3-23.6-29.2-26-49.1-26-61.5 0-37.8 30.6-68.5 68.4-68.5 20 0 39.2 9 52.1 24.1 18.1 21.2 20.3 51.8 19 76.2-8 146.5-67.7 272.8-70.7 282-2.7 6.7-7.2 23.5 5.4 30.3 9.7 4.8 21.1 0.4 32.2-9.4 27.5-23.5 80.7-90 109-155.2 15.2-35.2 52.9-128.5 40.7-221.6-12.6-71.8-58.6-115.1-98.4-136.7z"/>
	<path id="&lt;Path&gt; copy 3" class="s1" d="m419.9 110.9c0 48.4 39.2 87.7 87.7 87.7 48.4 0 87.7-39.3 87.7-87.7 0-7.2-1.7-14.5-4.7-21.1-7.6-15.9-16-23.7-15.3-42.7 1.2-25.8-31.8-26.1-49.6-26.1-19.3 0-40 2.7-57.4 11.5-14 7-26 17.7-34.5 30.9-8.8 13.6-13.5 29.3-13.9 45.4 0 0.8 0 1.4 0 2.1z"/>
</svg>